<svg width="33" height="32" viewBox="0 0 33 32" fill="none" xmlns="http://www.w3.org/2000/svg">
<g id="7123025_logo_google_g_icon 1">
<g id="Group">
<path id="Vector" d="M26.1014 16.234C26.1014 15.5727 26.0374 14.89 25.9307 14.25H16.6934V18.026H21.984C21.7707 19.242 21.0667 20.3087 20.0214 20.9913L23.1787 23.4447C25.0347 21.7167 26.1014 19.1993 26.1014 16.234Z" fill="#4280EF"/>
<path id="Vector_2" d="M16.6939 25.7918C19.3393 25.7918 21.5579 24.9171 23.1793 23.4238L20.0219 20.9918C19.1473 21.5891 18.0166 21.9304 16.6939 21.9304C14.1339 21.9304 11.9793 20.2024 11.1899 17.8984L7.94727 20.3944C9.61127 23.7011 12.9819 25.7918 16.6939 25.7918Z" fill="#34A353"/>
<path id="Vector_3" d="M11.1889 17.8765C10.7836 16.6605 10.7836 15.3378 11.1889 14.1218L7.94625 11.6045C6.55958 14.3778 6.55958 17.6418 7.94625 20.3938L11.1889 17.8765Z" fill="#F6B704"/>
<path id="Vector_4" d="M16.6939 10.0901C18.0806 10.0687 19.4459 10.6021 20.4486 11.5621L23.2433 8.74607C21.4726 7.08207 19.1259 6.18607 16.6939 6.2074C12.9819 6.2074 9.61127 8.29807 7.94727 11.6047L11.1899 14.1221C11.9793 11.7967 14.1339 10.0901 16.6939 10.0901Z" fill="#E54335"/>
</g>
</g>
</svg>
