<svg width="349" height="169" viewBox="0 0 349 169" fill="none" xmlns="http://www.w3.org/2000/svg">
<g clip-path="url(#clip0_903_2802)">
<rect width="349" height="168.683" rx="16" fill="white"/>
<rect x="20.3574" y="113.425" width="97.4417" height="35.6333" rx="17.45" fill="#ECF1F6"/>
<path d="M48.5526 130.089L41.7107 124.34C41.4311 124.101 41.0785 123.971 40.7144 123.971C40.3503 123.971 39.9977 124.101 39.7181 124.34L32.8764 130.089C32.8317 130.127 32.7948 130.174 32.7677 130.227C32.7407 130.28 32.7242 130.338 32.719 130.397C32.7139 130.457 32.7202 130.517 32.7377 130.574C32.7552 130.631 32.7834 130.683 32.8209 130.729L33.1053 131.079C33.1809 131.171 33.2893 131.229 33.4066 131.239C33.5239 131.25 33.6406 131.213 33.731 131.135L34.4938 130.495V132.15H34.4852V138.058C34.4862 138.179 34.5337 138.294 34.6174 138.379C34.7011 138.464 34.8143 138.512 34.9323 138.512H46.4909C46.6087 138.512 46.7217 138.464 46.8051 138.379C46.8884 138.294 46.9352 138.178 46.9352 138.058V130.495L47.6989 131.136C47.7893 131.214 47.9059 131.251 48.0233 131.241C48.1406 131.23 48.249 131.172 48.3246 131.08L48.6095 130.73C48.6471 130.684 48.6754 130.631 48.6929 130.574C48.7103 130.517 48.7166 130.457 48.7113 130.398C48.706 130.338 48.6893 130.28 48.662 130.227C48.6348 130.174 48.5976 130.127 48.5526 130.089ZM45.6022 130.333H45.5964V137.149H42.4919V133.059C42.4919 132.818 42.3982 132.587 42.2316 132.417C42.0649 132.246 41.8389 132.15 41.6032 132.15H39.8258C39.5902 132.15 39.3641 132.246 39.1975 132.417C39.0308 132.587 38.9372 132.818 38.9372 133.059V137.149H35.8182V129.494L35.8268 129.487V129.374L40.7145 125.267L45.6022 129.375V130.333Z" fill="#6A7685"/>
<path d="M58.802 133.589V132.556L62.458 126.781H63.2719V128.301H62.7555L60.1405 132.44V132.506H65.1516V133.589H58.802ZM62.8133 135.241V133.275L62.8216 132.804V126.781H64.032V135.241H62.8133ZM69.553 135.241V126.781H72.5688C73.2242 126.781 73.7682 126.894 74.2006 127.119C74.6357 127.345 74.9607 127.658 75.1755 128.057C75.3903 128.454 75.4977 128.912 75.4977 129.433C75.4977 129.951 75.389 130.406 75.1714 130.8C74.9566 131.191 74.6316 131.496 74.1964 131.713C73.764 131.931 73.2201 132.04 72.5646 132.04H70.2801V130.941H72.449C72.8621 130.941 73.1981 130.881 73.457 130.763C73.7186 130.645 73.91 130.472 74.0312 130.247C74.1524 130.021 74.213 129.75 74.213 129.433C74.213 129.113 74.151 128.837 74.0271 128.602C73.9059 128.368 73.7145 128.189 73.4528 128.065C73.1939 127.939 72.8538 127.875 72.4324 127.875H70.8295V135.241H69.553ZM73.7296 131.424L75.82 135.241H74.3658L72.3168 131.424H73.7296ZM79.4289 135.369C78.834 135.369 78.3149 135.233 77.8715 134.96C77.4281 134.688 77.0838 134.306 76.8387 133.816C76.5936 133.326 76.471 132.753 76.471 132.097C76.471 131.439 76.5936 130.864 76.8387 130.371C77.0838 129.878 77.4281 129.495 77.8715 129.222C78.3149 128.949 78.834 128.813 79.4289 128.813C80.0238 128.813 80.5429 128.949 80.9864 129.222C81.4298 129.495 81.774 129.878 82.0191 130.371C82.2643 130.864 82.3868 131.439 82.3868 132.097C82.3868 132.753 82.2643 133.326 82.0191 133.816C81.774 134.306 81.4298 134.688 80.9864 134.96C80.5429 135.233 80.0238 135.369 79.4289 135.369ZM79.433 134.332C79.8186 134.332 80.1381 134.23 80.3915 134.027C80.6448 133.823 80.8321 133.552 80.9533 133.213C81.0772 132.874 81.1392 132.501 81.1392 132.093C81.1392 131.688 81.0772 131.317 80.9533 130.978C80.8321 130.636 80.6448 130.362 80.3915 130.156C80.1381 129.949 79.8186 129.846 79.433 129.846C79.0447 129.846 78.7225 129.949 78.4664 130.156C78.213 130.362 78.0243 130.636 77.9004 130.978C77.7792 131.317 77.7186 131.688 77.7186 132.093C77.7186 132.501 77.7792 132.874 77.9004 133.213C78.0243 133.552 78.213 133.823 78.4664 134.027C78.7225 134.23 79.0447 134.332 79.433 134.332ZM86.3221 135.369C85.7272 135.369 85.2081 135.233 84.7647 134.96C84.3213 134.688 83.977 134.306 83.7319 133.816C83.4868 133.326 83.3642 132.753 83.3642 132.097C83.3642 131.439 83.4868 130.864 83.7319 130.371C83.977 129.878 84.3213 129.495 84.7647 129.222C85.2081 128.949 85.7272 128.813 86.3221 128.813C86.917 128.813 87.4361 128.949 87.8796 129.222C88.323 129.495 88.6672 129.878 88.9123 130.371C89.1575 130.864 89.28 131.439 89.28 132.097C89.28 132.753 89.1575 133.326 88.9123 133.816C88.6672 134.306 88.323 134.688 87.8796 134.96C87.4361 135.233 86.917 135.369 86.3221 135.369ZM86.3262 134.332C86.7118 134.332 87.0313 134.23 87.2847 134.027C87.5381 133.823 87.7253 133.552 87.8465 133.213C87.9704 132.874 88.0324 132.501 88.0324 132.093C88.0324 131.688 87.9704 131.317 87.8465 130.978C87.7253 130.636 87.5381 130.362 87.2847 130.156C87.0313 129.949 86.7118 129.846 86.3262 129.846C85.9379 129.846 85.6157 129.949 85.3596 130.156C85.1062 130.362 84.9175 130.636 84.7936 130.978C84.6724 131.317 84.6118 131.688 84.6118 132.093C84.6118 132.501 84.6724 132.874 84.7936 133.213C84.9175 133.552 85.1062 133.823 85.3596 134.027C85.6157 134.23 85.9379 134.332 86.3262 134.332ZM90.5425 135.241V128.896H91.7281V129.929H91.8066C91.9388 129.579 92.155 129.306 92.4552 129.111C92.7554 128.912 93.1148 128.813 93.5334 128.813C93.9575 128.813 94.3128 128.912 94.5993 129.111C94.8884 129.309 95.1019 129.582 95.2396 129.929H95.3057C95.4572 129.59 95.6981 129.32 96.0286 129.119C96.3591 128.915 96.753 128.813 97.2101 128.813C97.7858 128.813 98.2553 128.994 98.6189 129.354C98.9852 129.715 99.1683 130.259 99.1683 130.986V135.241H97.9331V131.102C97.9331 130.672 97.816 130.361 97.582 130.168C97.3479 129.975 97.0683 129.879 96.7433 129.879C96.3412 129.879 96.0286 130.003 95.8056 130.251C95.5825 130.496 95.4709 130.811 95.4709 131.197V135.241H94.2398V131.023C94.2398 130.679 94.1324 130.402 93.9176 130.193C93.7028 129.984 93.4233 129.879 93.079 129.879C92.8449 129.879 92.6287 129.941 92.4304 130.065C92.2349 130.186 92.0765 130.355 91.9553 130.573C91.8369 130.791 91.7777 131.043 91.7777 131.329V135.241H90.5425ZM105.463 130.445L104.343 130.643C104.296 130.5 104.222 130.364 104.12 130.234C104.021 130.105 103.886 129.999 103.715 129.916C103.544 129.834 103.331 129.792 103.075 129.792C102.725 129.792 102.433 129.871 102.199 130.028C101.965 130.182 101.848 130.382 101.848 130.627C101.848 130.839 101.926 131.01 102.083 131.139C102.24 131.268 102.494 131.374 102.843 131.457L103.851 131.688C104.435 131.823 104.87 132.031 105.157 132.312C105.443 132.593 105.586 132.958 105.586 133.407C105.586 133.787 105.476 134.126 105.256 134.423C105.038 134.718 104.734 134.949 104.343 135.117C103.955 135.285 103.504 135.369 102.992 135.369C102.282 135.369 101.702 135.218 101.253 134.915C100.804 134.609 100.529 134.175 100.427 133.614L101.621 133.432C101.695 133.743 101.848 133.978 102.079 134.138C102.31 134.295 102.612 134.374 102.984 134.374C103.389 134.374 103.712 134.29 103.955 134.122C104.197 133.951 104.318 133.743 104.318 133.498C104.318 133.3 104.244 133.133 104.095 132.998C103.949 132.863 103.725 132.761 103.422 132.692L102.348 132.457C101.755 132.322 101.318 132.107 101.034 131.812C100.753 131.518 100.613 131.144 100.613 130.693C100.613 130.318 100.717 129.991 100.926 129.71C101.136 129.429 101.425 129.21 101.794 129.053C102.163 128.893 102.586 128.813 103.062 128.813C103.748 128.813 104.288 128.962 104.682 129.259C105.076 129.554 105.336 129.949 105.463 130.445Z" fill="#425264"/>
<rect x="129.432" y="113.425" width="90.4417" height="35.6333" rx="17.45" fill="#ECF1F6"/>
<g clip-path="url(#clip1_903_2802)">
<path d="M156.77 129.651V127.814C156.77 126.395 155.598 125.243 154.153 125.243H145.428C143.983 125.243 142.81 126.395 142.81 127.814V129.651C141.867 129.937 141.15 130.73 141.073 131.697C141.011 132.473 141.335 133.21 141.938 133.695V136.169C141.938 136.761 142.426 137.24 143.028 137.24H145.428C145.537 137.24 146.251 137.216 146.297 136.383H153.283C153.321 137.208 154.046 137.24 154.153 137.24H156.552C157.155 137.24 157.643 136.761 157.643 136.169V133.695C158.243 133.21 158.57 132.476 158.507 131.697C158.431 130.73 157.714 129.937 156.77 129.651ZM144.991 135.955H143.246V132.99L142.922 132.803C142.554 132.594 142.347 132.206 142.379 131.796C142.42 131.255 142.957 130.813 143.574 130.813H143.901C144.503 130.813 144.991 131.292 144.991 131.884V135.955ZM153.28 132.527V135.098H146.3V132.527H153.28ZM153.381 131.242H146.197C145.929 130.323 145.114 129.64 144.119 129.549V127.814C144.119 127.104 144.705 126.529 145.428 126.529H154.153C154.875 126.529 155.461 127.104 155.461 127.814V129.549C154.463 129.64 153.648 130.323 153.381 131.242ZM156.658 132.805L156.334 132.993V135.955H154.589V131.884C154.589 131.292 155.077 130.813 155.68 130.813H156.007C156.623 130.813 157.16 131.255 157.204 131.799C157.234 132.208 157.026 132.594 156.658 132.805Z" fill="#6A7685"/>
</g>
<path d="M170.913 135.357C170.321 135.357 169.798 135.255 169.343 135.051C168.892 134.847 168.538 134.566 168.282 134.208C168.026 133.85 167.899 133.443 167.902 132.986C167.899 132.628 167.972 132.298 168.121 131.998C168.272 131.695 168.477 131.443 168.736 131.242C168.995 131.038 169.284 130.909 169.604 130.854V130.804C169.182 130.702 168.845 130.477 168.592 130.127C168.338 129.777 168.213 129.375 168.216 128.921C168.213 128.488 168.327 128.103 168.559 127.764C168.793 127.422 169.114 127.154 169.521 126.958C169.929 126.763 170.393 126.665 170.913 126.665C171.428 126.665 171.888 126.764 172.293 126.962C172.701 127.158 173.022 127.426 173.256 127.768C173.49 128.107 173.608 128.491 173.611 128.921C173.608 129.375 173.479 129.777 173.223 130.127C172.967 130.477 172.633 130.702 172.223 130.804V130.854C172.54 130.909 172.825 131.038 173.078 131.242C173.334 131.443 173.538 131.695 173.689 131.998C173.844 132.298 173.922 132.628 173.925 132.986C173.922 133.443 173.793 133.85 173.537 134.208C173.28 134.566 172.925 134.847 172.471 135.051C172.019 135.255 171.5 135.357 170.913 135.357ZM170.913 134.312C171.263 134.312 171.566 134.254 171.822 134.138C172.078 134.02 172.277 133.856 172.417 133.647C172.558 133.435 172.629 133.187 172.632 132.903C172.629 132.608 172.552 132.348 172.401 132.122C172.252 131.896 172.049 131.719 171.793 131.589C171.537 131.46 171.244 131.395 170.913 131.395C170.58 131.395 170.284 131.46 170.025 131.589C169.766 131.719 169.562 131.896 169.414 132.122C169.265 132.348 169.192 132.608 169.195 132.903C169.192 133.187 169.259 133.435 169.397 133.647C169.538 133.856 169.737 134.02 169.996 134.138C170.255 134.254 170.561 134.312 170.913 134.312ZM170.913 130.375C171.194 130.375 171.443 130.318 171.661 130.205C171.879 130.092 172.049 129.935 172.173 129.734C172.3 129.533 172.365 129.298 172.367 129.028C172.365 128.764 172.301 128.532 172.177 128.334C172.056 128.136 171.887 127.983 171.669 127.875C171.452 127.765 171.2 127.71 170.913 127.71C170.621 127.71 170.365 127.765 170.145 127.875C169.927 127.983 169.758 128.136 169.637 128.334C169.516 128.532 169.456 128.764 169.459 129.028C169.456 129.298 169.517 129.533 169.641 129.734C169.765 129.935 169.936 130.092 170.153 130.205C170.374 130.318 170.627 130.375 170.913 130.375ZM179.643 126.781V135.241H178.367V126.781H179.643ZM184.249 128.896V129.887H180.783V128.896H184.249ZM181.712 127.375H182.947V133.378C182.947 133.618 182.983 133.798 183.055 133.919C183.126 134.038 183.219 134.119 183.332 134.163C183.447 134.204 183.573 134.225 183.708 134.225C183.807 134.225 183.893 134.218 183.968 134.204C184.042 134.191 184.1 134.18 184.141 134.171L184.364 135.192C184.293 135.219 184.191 135.247 184.059 135.274C183.927 135.305 183.761 135.321 183.563 135.324C183.238 135.329 182.935 135.272 182.654 135.15C182.373 135.029 182.146 134.842 181.973 134.588C181.799 134.335 181.712 134.017 181.712 133.634V127.375ZM188.165 135.369C187.54 135.369 187.002 135.236 186.55 134.969C186.101 134.699 185.754 134.32 185.509 133.832C185.267 133.342 185.146 132.768 185.146 132.11C185.146 131.46 185.267 130.887 185.509 130.391C185.754 129.895 186.096 129.509 186.534 129.23C186.974 128.952 187.489 128.813 188.079 128.813C188.437 128.813 188.784 128.872 189.12 128.991C189.456 129.109 189.757 129.295 190.024 129.548C190.292 129.802 190.502 130.131 190.657 130.536C190.811 130.938 190.888 131.427 190.888 132.002V132.44H185.844V131.515H189.677C189.677 131.19 189.611 130.902 189.479 130.651C189.347 130.398 189.161 130.198 188.921 130.052C188.685 129.907 188.406 129.834 188.087 129.834C187.74 129.834 187.437 129.919 187.178 130.09C186.922 130.258 186.724 130.478 186.583 130.751C186.446 131.021 186.377 131.314 186.377 131.631V132.354C186.377 132.778 186.451 133.138 186.6 133.436C186.751 133.733 186.962 133.961 187.232 134.118C187.502 134.272 187.817 134.349 188.178 134.349C188.412 134.349 188.625 134.316 188.818 134.25C189.011 134.181 189.178 134.079 189.318 133.944C189.459 133.809 189.566 133.642 189.64 133.444L190.809 133.655C190.716 133.999 190.548 134.301 190.305 134.56C190.066 134.816 189.764 135.015 189.401 135.159C189.04 135.299 188.628 135.369 188.165 135.369ZM192.142 135.241V128.896H193.328V129.929H193.406C193.538 129.579 193.755 129.306 194.055 129.111C194.355 128.912 194.714 128.813 195.133 128.813C195.557 128.813 195.912 128.912 196.199 129.111C196.488 129.309 196.702 129.582 196.839 129.929H196.905C197.057 129.59 197.298 129.32 197.628 129.119C197.959 128.915 198.353 128.813 198.81 128.813C199.385 128.813 199.855 128.994 200.218 129.354C200.585 129.715 200.768 130.259 200.768 130.986V135.241H199.533V131.102C199.533 130.672 199.416 130.361 199.182 130.168C198.947 129.975 198.668 129.879 198.343 129.879C197.941 129.879 197.628 130.003 197.405 130.251C197.182 130.496 197.071 130.811 197.071 131.197V135.241H195.839V131.023C195.839 130.679 195.732 130.402 195.517 130.193C195.302 129.984 195.023 129.879 194.679 129.879C194.445 129.879 194.228 129.941 194.03 130.065C193.834 130.186 193.676 130.355 193.555 130.573C193.437 130.791 193.377 131.043 193.377 131.329V135.241H192.142ZM207.062 130.445L205.943 130.643C205.896 130.5 205.821 130.364 205.72 130.234C205.62 130.105 205.485 129.999 205.315 129.916C205.144 129.834 204.93 129.792 204.674 129.792C204.325 129.792 204.033 129.871 203.799 130.028C203.564 130.182 203.447 130.382 203.447 130.627C203.447 130.839 203.526 131.01 203.683 131.139C203.84 131.268 204.093 131.374 204.443 131.457L205.451 131.688C206.035 131.823 206.47 132.031 206.756 132.312C207.043 132.593 207.186 132.958 207.186 133.407C207.186 133.787 207.076 134.126 206.856 134.423C206.638 134.718 206.334 134.949 205.943 135.117C205.554 135.285 205.104 135.369 204.592 135.369C203.881 135.369 203.301 135.218 202.852 134.915C202.404 134.609 202.128 134.175 202.026 133.614L203.22 133.432C203.295 133.743 203.447 133.978 203.679 134.138C203.91 134.295 204.212 134.374 204.583 134.374C204.988 134.374 205.312 134.29 205.554 134.122C205.797 133.951 205.918 133.743 205.918 133.498C205.918 133.3 205.843 133.133 205.695 132.998C205.549 132.863 205.324 132.761 205.021 132.692L203.947 132.457C203.355 132.322 202.917 132.107 202.634 131.812C202.353 131.518 202.212 131.144 202.212 130.693C202.212 130.318 202.317 129.991 202.526 129.71C202.735 129.429 203.025 129.21 203.394 129.053C203.763 128.893 204.185 128.813 204.662 128.813C205.348 128.813 205.888 128.962 206.281 129.259C206.675 129.554 206.935 129.949 207.062 130.445Z" fill="#425264"/>
<rect x="231.507" y="113.425" width="93.4417" height="35.6333" rx="17.45" fill="#ECF1F6"/>
<g clip-path="url(#clip2_903_2802)">
<path d="M259.785 129.011L258.204 124.269C258.001 123.657 257.429 123.244 256.783 123.244H246.948C246.301 123.244 245.729 123.657 245.526 124.269L243.945 129.011C243.895 129.164 243.867 129.324 243.867 129.486V137.74C243.867 138.568 244.539 139.24 245.367 139.24H258.363C259.191 139.24 259.863 138.568 259.863 137.74V129.486C259.863 129.324 259.838 129.164 259.785 129.011ZM258.282 129.243H252.615V124.744H256.783L258.282 129.243ZM246.948 124.744H251.115V129.243H245.448L246.948 124.744ZM245.367 137.74V130.742H258.363V137.74H245.367Z" fill="#6A7685"/>
</g>
<path d="M269.952 133.589V132.556L273.608 126.781H274.422V128.301H273.905L271.29 132.44V132.506H276.301V133.589H269.952ZM273.963 135.241V133.275L273.971 132.804V126.781H275.182V135.241H273.963ZM280.703 135.241V126.781H283.801C284.402 126.781 284.899 126.88 285.293 127.078C285.686 127.274 285.981 127.539 286.177 127.875C286.372 128.209 286.47 128.585 286.47 129.003C286.47 129.356 286.405 129.653 286.276 129.895C286.146 130.135 285.973 130.328 285.755 130.474C285.54 130.617 285.304 130.722 285.045 130.788V130.87C285.326 130.884 285.6 130.975 285.867 131.143C286.137 131.308 286.36 131.544 286.536 131.85C286.712 132.155 286.8 132.527 286.8 132.965C286.8 133.397 286.699 133.786 286.495 134.13C286.294 134.471 285.983 134.743 285.561 134.944C285.14 135.142 284.601 135.241 283.946 135.241H280.703ZM281.979 134.146H283.822C284.433 134.146 284.871 134.028 285.136 133.791C285.4 133.554 285.532 133.258 285.532 132.903C285.532 132.636 285.465 132.391 285.33 132.168C285.195 131.945 285.002 131.767 284.751 131.635C284.504 131.503 284.209 131.436 283.867 131.436H281.979V134.146ZM281.979 130.441H283.69C283.976 130.441 284.234 130.386 284.462 130.276C284.694 130.165 284.877 130.011 285.012 129.813C285.149 129.612 285.218 129.375 285.218 129.102C285.218 128.753 285.096 128.459 284.851 128.222C284.605 127.986 284.23 127.867 283.723 127.867H281.979V130.441ZM290.772 135.369C290.177 135.369 289.658 135.233 289.214 134.96C288.771 134.688 288.427 134.306 288.182 133.816C287.937 133.326 287.814 132.753 287.814 132.097C287.814 131.439 287.937 130.864 288.182 130.371C288.427 129.878 288.771 129.495 289.214 129.222C289.658 128.949 290.177 128.813 290.772 128.813C291.367 128.813 291.886 128.949 292.329 129.222C292.773 129.495 293.117 129.878 293.362 130.371C293.607 130.864 293.73 131.439 293.73 132.097C293.73 132.753 293.607 133.326 293.362 133.816C293.117 134.306 292.773 134.688 292.329 134.96C291.886 135.233 291.367 135.369 290.772 135.369ZM290.776 134.332C291.162 134.332 291.481 134.23 291.735 134.027C291.988 133.823 292.175 133.552 292.296 133.213C292.42 132.874 292.482 132.501 292.482 132.093C292.482 131.688 292.42 131.317 292.296 130.978C292.175 130.636 291.988 130.362 291.735 130.156C291.481 129.949 291.162 129.846 290.776 129.846C290.388 129.846 290.066 129.949 289.809 130.156C289.556 130.362 289.367 130.636 289.243 130.978C289.122 131.317 289.062 131.688 289.062 132.093C289.062 132.501 289.122 132.874 289.243 133.213C289.367 133.552 289.556 133.823 289.809 134.027C290.066 134.23 290.388 134.332 290.776 134.332ZM295.717 128.896L297.118 131.366L298.531 128.896H299.882L297.903 132.068L299.898 135.241H298.547L297.118 132.87L295.693 135.241H294.338L296.312 132.068L294.362 128.896H295.717ZM303.518 135.369C302.893 135.369 302.355 135.236 301.903 134.969C301.454 134.699 301.107 134.32 300.862 133.832C300.62 133.342 300.498 132.768 300.498 132.11C300.498 131.46 300.62 130.887 300.862 130.391C301.107 129.895 301.449 129.509 301.887 129.23C302.327 128.952 302.842 128.813 303.432 128.813C303.79 128.813 304.137 128.872 304.473 128.991C304.809 129.109 305.11 129.295 305.377 129.548C305.645 129.802 305.855 130.131 306.009 130.536C306.164 130.938 306.241 131.427 306.241 132.002V132.44H301.197V131.515H305.03C305.03 131.19 304.964 130.902 304.832 130.651C304.7 130.398 304.514 130.198 304.274 130.052C304.037 129.907 303.759 129.834 303.44 129.834C303.093 129.834 302.79 129.919 302.531 130.09C302.275 130.258 302.077 130.478 301.936 130.751C301.798 131.021 301.73 131.314 301.73 131.631V132.354C301.73 132.778 301.804 133.138 301.953 133.436C302.104 133.733 302.315 133.961 302.585 134.118C302.855 134.272 303.17 134.349 303.531 134.349C303.765 134.349 303.978 134.316 304.171 134.25C304.364 134.181 304.53 134.079 304.671 133.944C304.811 133.809 304.919 133.642 304.993 133.444L306.162 133.655C306.069 133.999 305.901 134.301 305.658 134.56C305.419 134.816 305.117 135.015 304.754 135.159C304.393 135.299 303.981 135.369 303.518 135.369ZM312.25 130.445L311.13 130.643C311.084 130.5 311.009 130.364 310.907 130.234C310.808 130.105 310.673 129.999 310.502 129.916C310.332 129.834 310.118 129.792 309.862 129.792C309.512 129.792 309.22 129.871 308.986 130.028C308.752 130.182 308.635 130.382 308.635 130.627C308.635 130.839 308.714 131.01 308.871 131.139C309.028 131.268 309.281 131.374 309.631 131.457L310.639 131.688C311.223 131.823 311.658 132.031 311.944 132.312C312.231 132.593 312.374 132.958 312.374 133.407C312.374 133.787 312.264 134.126 312.043 134.423C311.826 134.718 311.521 134.949 311.13 135.117C310.742 135.285 310.292 135.369 309.779 135.369C309.069 135.369 308.489 135.218 308.04 134.915C307.591 134.609 307.316 134.175 307.214 133.614L308.408 133.432C308.482 133.743 308.635 133.978 308.866 134.138C309.098 134.295 309.399 134.374 309.771 134.374C310.176 134.374 310.5 134.29 310.742 134.122C310.984 133.951 311.106 133.743 311.106 133.498C311.106 133.3 311.031 133.133 310.882 132.998C310.737 132.863 310.512 132.761 310.209 132.692L309.135 132.457C308.543 132.322 308.105 132.107 307.821 131.812C307.54 131.518 307.4 131.144 307.4 130.693C307.4 130.318 307.505 129.991 307.714 129.71C307.923 129.429 308.212 129.21 308.581 129.053C308.95 128.893 309.373 128.813 309.85 128.813C310.535 128.813 311.075 128.962 311.469 129.259C311.863 129.554 312.123 129.949 312.25 130.445Z" fill="#425264"/>
<rect x="197.766" y="81.4336" width="130.875" height="11.6333" rx="5.81667" fill="#D8E1EB"/>
<path opacity="0.6" d="M201.236 69.167H198.548V61.2352H201.29C202.078 61.2352 202.754 61.394 203.319 61.7115C203.887 62.0265 204.324 62.4797 204.629 63.071C204.933 63.6622 205.086 64.3697 205.086 65.1933C205.086 66.0196 204.932 66.7296 204.625 67.3235C204.32 67.9173 203.88 68.373 203.304 68.6906C202.731 69.0082 202.041 69.167 201.236 69.167ZM199.985 67.9238H201.166C201.719 67.9238 202.18 67.8231 202.549 67.6217C202.918 67.4177 203.196 67.1143 203.381 66.7115C203.567 66.3062 203.66 65.8001 203.66 65.1933C203.66 64.5866 203.567 64.0831 203.381 63.6829C203.196 63.2801 202.921 62.9793 202.556 62.7805C202.195 62.5791 201.746 62.4784 201.209 62.4784H199.985V67.9238ZM206.742 69.167V61.2352H211.9V62.4397H208.178V64.593H211.633V65.7975H208.178V67.9625H211.931V69.167H206.742ZM217.968 63.4156C217.932 63.0774 217.779 62.814 217.511 62.6256C217.245 62.4371 216.899 62.3428 216.473 62.3428C216.173 62.3428 215.916 62.388 215.702 62.4784C215.488 62.5688 215.324 62.6914 215.21 62.8463C215.097 63.0012 215.038 63.1781 215.036 63.3769C215.036 63.5422 215.073 63.6855 215.148 63.8068C215.226 63.9282 215.33 64.0314 215.462 64.1167C215.594 64.1993 215.739 64.269 215.9 64.3258C216.06 64.3826 216.221 64.4304 216.384 64.4691L217.127 64.655C217.427 64.7247 217.715 64.819 217.991 64.9377C218.27 65.0565 218.519 65.2062 218.738 65.387C218.96 65.5677 219.136 65.7859 219.265 66.0415C219.394 66.2971 219.459 66.5966 219.459 66.94C219.459 67.4048 219.34 67.814 219.102 68.1678C218.865 68.5189 218.522 68.7939 218.072 68.9927C217.626 69.1889 217.085 69.2871 216.449 69.2871C215.832 69.2871 215.297 69.1915 214.842 69.0005C214.39 68.8094 214.037 68.5305 213.781 68.1639C213.528 67.7973 213.391 67.3506 213.37 66.8239H214.784C214.805 67.1001 214.89 67.3299 215.04 67.5132C215.189 67.6966 215.384 67.8334 215.625 67.9238C215.867 68.0141 216.138 68.0593 216.438 68.0593C216.75 68.0593 217.024 68.0129 217.259 67.9199C217.496 67.8244 217.682 67.6927 217.817 67.5249C217.951 67.3544 218.019 67.1556 218.022 66.9284C218.019 66.7219 217.959 66.5515 217.84 66.4172C217.721 66.2803 217.555 66.1667 217.34 66.0764C217.129 65.9834 216.881 65.9008 216.597 65.8285L215.694 65.5961C215.041 65.4283 214.525 65.174 214.145 64.8332C213.768 64.4897 213.58 64.034 213.58 63.466C213.58 62.9987 213.706 62.5894 213.959 62.2383C214.215 61.8871 214.562 61.6147 215.001 61.4211C215.44 61.2248 215.937 61.1267 216.492 61.1267C217.055 61.1267 217.548 61.2248 217.972 61.4211C218.398 61.6147 218.732 61.8845 218.975 62.2305C219.217 62.5739 219.343 62.969 219.35 63.4156H217.968ZM220.682 62.4397V61.2352H227.01V62.4397H224.559V69.167H223.134V62.4397H220.682ZM229.958 61.2352V69.167H228.521V61.2352H229.958ZM238.323 61.2352V69.167H237.045L233.308 63.7642H233.242V69.167H231.805V61.2352H233.091L236.824 66.6418H236.894V61.2352H238.323ZM241.198 69.167H239.664L242.457 61.2352H244.231L247.027 69.167H245.493L243.375 62.8618H243.313L241.198 69.167ZM241.249 66.057H245.431V67.2111H241.249V66.057ZM247.055 62.4397V61.2352H253.384V62.4397H250.932V69.167H249.507V62.4397H247.055ZM256.332 61.2352V69.167H254.895V61.2352H256.332ZM265.266 65.2011C265.266 66.0557 265.106 66.7877 264.786 67.3971C264.468 68.0038 264.034 68.4686 263.484 68.7913C262.937 69.1141 262.316 69.2754 261.621 69.2754C260.927 69.2754 260.305 69.1141 259.755 68.7913C259.207 68.466 258.773 67.9999 258.453 67.3932C258.136 66.7838 257.977 66.0531 257.977 65.2011C257.977 64.3465 258.136 63.6158 258.453 63.009C258.773 62.3996 259.207 61.9336 259.755 61.6109C260.305 61.2881 260.927 61.1267 261.621 61.1267C262.316 61.1267 262.937 61.2881 263.484 61.6109C264.034 61.9336 264.468 62.3996 264.786 63.009C265.106 63.6158 265.266 64.3465 265.266 65.2011ZM263.821 65.2011C263.821 64.5995 263.727 64.0921 263.538 63.679C263.353 63.2633 263.094 62.9496 262.764 62.7379C262.433 62.5236 262.053 62.4164 261.621 62.4164C261.19 62.4164 260.809 62.5236 260.479 62.7379C260.148 62.9496 259.889 63.2633 259.7 63.679C259.514 64.0921 259.422 64.5995 259.422 65.2011C259.422 65.8027 259.514 66.3113 259.7 66.727C259.889 67.1401 260.148 67.4539 260.479 67.6682C260.809 67.8799 261.19 67.9857 261.621 67.9857C262.053 67.9857 262.433 67.8799 262.764 67.6682C263.094 67.4539 263.353 67.1401 263.538 66.727C263.727 66.3113 263.821 65.8027 263.821 65.2011ZM273.433 61.2352V69.167H272.155L268.418 63.7642H268.352V69.167H266.915V61.2352H268.201L271.934 66.6418H272.004V61.2352H273.433Z" fill="#061B33"/>
<rect x="20.3594" y="81.4336" width="130.875" height="11.6333" rx="5.81667" fill="#D8E1EB"/>
<path opacity="0.6" d="M28.2292 65.2011C28.2292 66.0557 28.0691 66.7877 27.749 67.3971C27.4314 68.0038 26.9976 68.4686 26.4477 68.7913C25.9003 69.1141 25.2793 69.2754 24.5848 69.2754C23.8902 69.2754 23.268 69.1141 22.718 68.7913C22.1706 68.466 21.7369 67.9999 21.4167 67.3932C21.0991 66.7838 20.9403 66.0531 20.9403 65.2011C20.9403 64.3465 21.0991 63.6158 21.4167 63.009C21.7369 62.3996 22.1706 61.9336 22.718 61.6109C23.268 61.2881 23.8902 61.1267 24.5848 61.1267C25.2793 61.1267 25.9003 61.2881 26.4477 61.6109C26.9976 61.9336 27.4314 62.3996 27.749 63.009C28.0691 63.6158 28.2292 64.3465 28.2292 65.2011ZM26.7846 65.2011C26.7846 64.5995 26.6904 64.0921 26.5019 63.679C26.316 63.2633 26.0578 62.9496 25.7273 62.7379C25.3968 62.5236 25.016 62.4164 24.5848 62.4164C24.1536 62.4164 23.7727 62.5236 23.4422 62.7379C23.1118 62.9496 22.8523 63.2633 22.6638 63.679C22.4779 64.0921 22.3849 64.5995 22.3849 65.2011C22.3849 65.8027 22.4779 66.3113 22.6638 66.727C22.8523 67.1401 23.1118 67.4539 23.4422 67.6682C23.7727 67.8799 24.1536 67.9857 24.5848 67.9857C25.016 67.9857 25.3968 67.8799 25.7273 67.6682C26.0578 67.4539 26.316 67.1401 26.5019 66.727C26.6904 66.3113 26.7846 65.8027 26.7846 65.2011ZM29.8785 69.167V61.2352H32.8529C33.4623 61.2352 33.9735 61.341 34.3866 61.5528C34.8023 61.7645 35.116 62.0614 35.3278 62.4435C35.5421 62.8231 35.6492 63.2659 35.6492 63.772C35.6492 64.2806 35.5408 64.7221 35.3239 65.0965C35.1096 65.4683 34.7933 65.7562 34.375 65.9602C33.9567 66.1616 33.4429 66.2623 32.8336 66.2623H30.7151V65.0694H32.6399C32.9962 65.0694 33.288 65.0203 33.5152 64.9222C33.7424 64.8215 33.9102 64.6757 34.0187 64.4846C34.1297 64.2909 34.1852 64.0534 34.1852 63.772C34.1852 63.4905 34.1297 63.2504 34.0187 63.0516C33.9077 62.8502 33.7385 62.6979 33.5113 62.5946C33.2841 62.4887 32.9911 62.4358 32.6322 62.4358H31.3154V69.167H29.8785ZM33.9761 65.5729L35.9397 69.167H34.3363L32.4075 65.5729H33.9761ZM38.6995 61.2352V69.167H37.2627V61.2352H38.6995ZM45.86 63.7681C45.7955 63.5589 45.7064 63.3718 45.5928 63.2065C45.4818 63.0387 45.3475 62.8954 45.19 62.7766C45.0351 62.6578 44.8569 62.5688 44.6555 62.5094C44.4541 62.4474 44.2347 62.4164 43.9971 62.4164C43.5711 62.4164 43.1915 62.5236 42.8585 62.7379C42.5254 62.9522 42.2633 63.2672 42.0723 63.6829C41.8838 64.096 41.7895 64.5995 41.7895 65.1933C41.7895 65.7924 41.8838 66.2997 42.0723 66.7154C42.2607 67.1311 42.5228 67.4474 42.8585 67.6643C43.1941 67.8786 43.584 67.9857 44.0281 67.9857C44.4309 67.9857 44.7795 67.9083 45.0738 67.7534C45.3707 67.5984 45.5992 67.379 45.7593 67.095C45.9194 66.8084 45.9994 66.4727 45.9994 66.088L46.3248 66.1383H44.1714V65.0152H47.3898V65.9679C47.3898 66.647 47.2452 67.2344 46.9561 67.7301C46.6669 68.2259 46.2693 68.608 45.7632 68.8765C45.2571 69.1425 44.6762 69.2754 44.0204 69.2754C43.2897 69.2754 42.648 69.1115 42.0955 68.7836C41.5455 68.4531 41.1156 67.9844 40.8058 67.3777C40.4986 66.7683 40.3449 66.0454 40.3449 65.2088C40.3449 64.5685 40.4353 63.9966 40.616 63.4931C40.7993 62.9896 41.055 62.5623 41.3829 62.2112C41.7108 61.8574 42.0955 61.5889 42.537 61.4056C42.9785 61.2197 43.4588 61.1267 43.9778 61.1267C44.4167 61.1267 44.8259 61.1913 45.2055 61.3204C45.585 61.4469 45.922 61.6276 46.2163 61.8626C46.5133 62.0976 46.7573 62.3764 46.9483 62.6992C47.1394 63.0219 47.2646 63.3782 47.324 63.7681H45.86ZM50.507 61.2352V69.167H49.0701V61.2352H50.507ZM58.8719 61.2352V69.167H57.5939L53.8565 63.7642H53.7906V69.167H52.3538V61.2352H53.6396L57.3731 66.6418H57.4428V61.2352H58.8719Z" fill="#061B33"/>
<path d="M47.8893 37.1768V23.4283H56.8311V25.5161H50.3798V29.2486H56.3679V31.3363H50.3798V35.089H56.8848V37.1768H47.8893ZM67.2253 29.5909L65.01 29.8326C64.9474 29.6088 64.8377 29.3985 64.6811 29.2016C64.5289 29.0046 64.323 28.8458 64.0635 28.7249C63.8039 28.6041 63.4861 28.5437 63.1102 28.5437C62.6045 28.5437 62.1793 28.6533 61.8347 28.8726C61.4946 29.0919 61.3267 29.3761 61.3312 29.7252C61.3267 30.025 61.4364 30.2689 61.6602 30.4569C61.8884 30.6449 62.2643 30.7993 62.788 30.9201L64.5468 31.2961C65.5224 31.5064 66.2475 31.8398 66.7219 32.2963C67.2007 32.7528 67.4424 33.3503 67.4469 34.0887C67.4424 34.7377 67.2522 35.3105 66.8763 35.8073C66.5048 36.2996 65.9879 36.6845 65.3255 36.9619C64.6632 37.2394 63.9023 37.3782 63.0431 37.3782C61.781 37.3782 60.7651 37.1141 59.9953 36.586C59.2255 36.0534 58.7668 35.3127 58.6191 34.364L60.9888 34.1357C61.0963 34.6012 61.3245 34.9525 61.6736 35.1897C62.0227 35.4269 62.4769 35.5455 63.0364 35.5455C63.6137 35.5455 64.0769 35.4269 64.426 35.1897C64.7795 34.9525 64.9563 34.6593 64.9563 34.3103C64.9563 34.0149 64.8422 33.771 64.6139 33.5785C64.3902 33.3861 64.0411 33.2384 63.5667 33.1355L61.8079 32.7662C60.8188 32.5604 60.0871 32.2135 59.6127 31.7257C59.1383 31.2334 58.9033 30.6113 58.9078 29.8594C58.9033 29.2239 59.0756 28.6735 59.4247 28.208C59.7782 27.7381 60.2683 27.3756 60.8949 27.1205C61.5259 26.8609 62.2532 26.7311 63.0766 26.7311C64.285 26.7311 65.236 26.9885 65.9297 27.5031C66.6279 28.0178 67.0598 28.7137 67.2253 29.5909ZM74.4107 26.8654V28.7451H68.483V26.8654H74.4107ZM69.9464 24.395H72.3766V34.0753C72.3766 34.402 72.4258 34.6526 72.5243 34.8272C72.6272 34.9972 72.7615 35.1136 72.9271 35.1762C73.0927 35.2389 73.2762 35.2702 73.4775 35.2702C73.6297 35.2702 73.7684 35.259 73.8938 35.2367C74.0235 35.2143 74.122 35.1941 74.1891 35.1762L74.5986 37.0761C74.4689 37.1208 74.2831 37.17 74.0415 37.2237C73.8043 37.2775 73.5134 37.3088 73.1687 37.3177C72.5601 37.3356 72.0118 37.2439 71.524 37.0425C71.0362 36.8366 70.6491 36.5189 70.3627 36.0892C70.0807 35.6596 69.942 35.1225 69.9464 34.4781V24.395ZM76.254 37.1768V26.8654H78.6842V37.1768H76.254ZM77.4758 25.4019C77.0909 25.4019 76.7598 25.2744 76.4823 25.0193C76.2048 24.7597 76.0661 24.4487 76.0661 24.0862C76.0661 23.7192 76.2048 23.4081 76.4823 23.153C76.7598 22.8935 77.0909 22.7637 77.4758 22.7637C77.8652 22.7637 78.1964 22.8935 78.4694 23.153C78.7468 23.4081 78.8856 23.7192 78.8856 24.0862C78.8856 24.4487 78.7468 24.7597 78.4694 25.0193C78.1964 25.2744 77.8652 25.4019 77.4758 25.4019ZM80.9941 37.1768V26.8654H83.3168V28.6175H83.4377C83.6525 28.0268 84.0083 27.5658 84.5051 27.2346C85.0018 26.899 85.5948 26.7311 86.284 26.7311C86.9822 26.7311 87.5707 26.9012 88.0496 27.2413C88.5329 27.577 88.8731 28.0357 89.07 28.6175H89.1774C89.4057 28.0447 89.7905 27.5882 90.3321 27.248C90.8781 26.9034 91.5248 26.7311 92.2722 26.7311C93.2209 26.7311 93.9952 27.031 94.5949 27.6307C95.1946 28.2304 95.4945 29.1053 95.4945 30.2555V37.1768H93.0576V30.6315C93.0576 29.9915 92.8875 29.5238 92.5474 29.2284C92.2073 28.9286 91.791 28.7786 91.2988 28.7786C90.7125 28.7786 90.2537 28.9621 89.9226 29.3291C89.5959 29.6916 89.4325 30.1638 89.4325 30.7456V37.1768H87.0493V30.5308C87.0493 29.9982 86.8882 29.573 86.566 29.2553C86.2482 28.9375 85.832 28.7786 85.3174 28.7786C84.9683 28.7786 84.6505 28.8681 84.3641 29.0472C84.0777 29.2217 83.8494 29.4701 83.6794 29.7923C83.5093 30.1101 83.4243 30.4815 83.4243 30.9067V37.1768H80.9941ZM100.738 37.3849C100.085 37.3849 99.4961 37.2685 98.9725 37.0358C98.4533 36.7986 98.0416 36.4495 97.7372 35.9885C97.4374 35.5276 97.2875 34.9592 97.2875 34.2834C97.2875 33.7016 97.3949 33.2205 97.6097 32.8401C97.8245 32.4597 98.1177 32.1553 98.4891 31.9271C98.8606 31.6988 99.279 31.5265 99.7445 31.4102C100.214 31.2893 100.7 31.2021 101.201 31.1484C101.805 31.0857 102.295 31.0298 102.671 30.9805C103.047 30.9268 103.32 30.8463 103.49 30.7389C103.665 30.627 103.752 30.4547 103.752 30.222V30.1817C103.752 29.676 103.602 29.2844 103.302 29.0069C103.003 28.7294 102.571 28.5907 102.007 28.5907C101.412 28.5907 100.939 28.7205 100.59 28.98C100.246 29.2396 100.013 29.5462 99.8922 29.8997L97.6231 29.5775C97.8021 28.9509 98.0975 28.4273 98.5093 28.0066C98.921 27.5815 99.4245 27.2637 100.02 27.0534C100.615 26.8385 101.273 26.7311 101.993 26.7311C102.49 26.7311 102.985 26.7893 103.477 26.9057C103.969 27.022 104.419 27.2145 104.826 27.483C105.234 27.7471 105.56 28.1073 105.806 28.5638C106.057 29.0203 106.182 29.5909 106.182 30.2757V37.1768H103.846V35.7603H103.766C103.618 36.0467 103.41 36.3152 103.141 36.5659C102.877 36.812 102.544 37.0112 102.141 37.1633C101.743 37.311 101.275 37.3849 100.738 37.3849ZM101.369 35.5992C101.857 35.5992 102.28 35.503 102.638 35.3105C102.996 35.1136 103.271 34.854 103.464 34.5318C103.66 34.2096 103.759 33.8582 103.759 33.4778V32.2627C103.683 32.3254 103.553 32.3836 103.37 32.4373C103.191 32.491 102.989 32.538 102.765 32.5783C102.542 32.6185 102.32 32.6543 102.101 32.6857C101.881 32.717 101.691 32.7439 101.53 32.7662C101.168 32.8155 100.843 32.896 100.557 33.0079C100.27 33.1198 100.044 33.2764 99.8787 33.4778C99.7131 33.6747 99.6303 33.9298 99.6303 34.2431C99.6303 34.6907 99.7937 35.0286 100.12 35.2568C100.447 35.485 100.863 35.5992 101.369 35.5992ZM113.586 26.8654V28.7451H107.658V26.8654H113.586ZM109.122 24.395H111.552V34.0753C111.552 34.402 111.601 34.6526 111.699 34.8272C111.802 34.9972 111.937 35.1136 112.102 35.1762C112.268 35.2389 112.451 35.2702 112.653 35.2702C112.805 35.2702 112.944 35.259 113.069 35.2367C113.199 35.2143 113.297 35.1941 113.364 35.1762L113.774 37.0761C113.644 37.1208 113.458 37.17 113.217 37.2237C112.979 37.2775 112.689 37.3088 112.344 37.3177C111.735 37.3356 111.187 37.2439 110.699 37.0425C110.211 36.8366 109.824 36.5189 109.538 36.0892C109.256 35.6596 109.117 35.1225 109.122 34.4781V24.395ZM119.883 37.3782C118.85 37.3782 117.957 37.1633 117.205 36.7337C116.457 36.2996 115.882 35.6864 115.48 34.8943C115.077 34.0977 114.875 33.1601 114.875 32.0815C114.875 31.0208 115.077 30.0899 115.48 29.2888C115.887 28.4833 116.455 27.8567 117.185 27.4092C117.914 26.9571 118.771 26.7311 119.756 26.7311C120.391 26.7311 120.991 26.8341 121.555 27.0399C122.123 27.2413 122.625 27.5546 123.059 27.9798C123.497 28.4049 123.842 28.9465 124.093 29.6043C124.343 30.2578 124.468 31.0365 124.468 31.9405V32.6857H116.017V31.0477H122.139C122.135 30.5822 122.034 30.1683 121.837 29.8057C121.64 29.4388 121.365 29.1501 121.011 28.9398C120.662 28.7294 120.255 28.6242 119.789 28.6242C119.293 28.6242 118.856 28.7451 118.48 28.9867C118.104 29.2239 117.811 29.5372 117.601 29.9266C117.395 30.3115 117.29 30.7344 117.285 31.1954V32.6253C117.285 33.225 117.395 33.7396 117.614 34.1693C117.834 34.5944 118.14 34.9211 118.534 35.1494C118.928 35.3732 119.389 35.485 119.917 35.485C120.271 35.485 120.591 35.4358 120.877 35.3374C121.163 35.2344 121.412 35.0845 121.622 34.8876C121.832 34.6907 121.991 34.4468 122.099 34.1559L124.368 34.4109C124.225 35.0107 123.952 35.5343 123.549 35.9818C123.15 36.4249 122.64 36.7695 122.018 37.0156C121.396 37.2573 120.684 37.3782 119.883 37.3782Z" fill="#061B33"/>
<g clip-path="url(#clip3_903_2802)">
<path d="M35.1456 24.4243L32.2864 21.5655C31.9797 21.2588 31.5639 21.085 31.1314 21.085H24.1766C23.2738 21.0884 22.541 21.8211 22.541 22.724V36.8994C22.541 37.8022 23.2738 38.535 24.1766 38.535H33.9902C34.8934 38.535 35.6285 37.8022 35.6285 36.8994V25.5828C35.6285 25.1503 35.4523 24.7311 35.1456 24.4243ZM31.2643 22.8569L33.8576 25.4498H31.2643V22.8569ZM33.9926 36.8994H24.1766V22.724H29.6287V26.2678C29.6287 26.7211 29.9934 27.0854 30.4467 27.0854H33.9926V36.8994ZM29.6301 28.4467C29.6301 28.296 29.5081 28.174 29.3574 28.174H28.8121C28.6615 28.174 28.5395 28.296 28.5395 28.4467V29.2687C27.7344 29.2902 27.0852 29.9691 27.0852 30.8048C27.0852 31.4854 27.5276 32.0935 28.1615 32.2836L29.6952 32.7437C29.871 32.7966 29.9941 32.9748 29.9941 33.1776C29.9941 33.4254 29.8134 33.6271 29.5919 33.6271H28.6339C28.4784 33.6271 28.3285 33.5832 28.1969 33.5004C28.0865 33.4312 27.9461 33.4353 27.8517 33.5252L27.4512 33.9073C27.3309 34.0222 27.3377 34.2212 27.4706 34.3211C27.7808 34.5538 28.155 34.6881 28.5398 34.7079V35.5357C28.5398 35.6864 28.6618 35.8084 28.8124 35.8084H29.3578C29.5084 35.8084 29.6304 35.6864 29.6304 35.5357V34.7137C30.4354 34.6922 31.0847 34.0136 31.0847 33.1776C31.0847 32.497 30.6423 31.889 30.0084 31.6988L28.4747 31.2387C28.2988 31.1859 28.1758 31.0076 28.1758 30.8048C28.1758 30.557 28.3564 30.3553 28.578 30.3553H29.536C29.6914 30.3553 29.8414 30.3992 29.9729 30.4821C30.0834 30.5512 30.2238 30.5472 30.3182 30.4572L30.7187 30.0751C30.839 29.9603 30.8322 29.7612 30.6992 29.6614C30.3891 29.4286 30.0149 29.2943 29.6301 29.2745V28.4467ZM25.5402 24.9021H28.2668C28.4174 24.9021 28.5395 24.7801 28.5395 24.6295V24.0842C28.5395 23.9335 28.4174 23.8115 28.2668 23.8115H25.5402C25.3896 23.8115 25.2676 23.9335 25.2676 24.0842V24.6295C25.2676 24.7801 25.3896 24.9021 25.5402 24.9021ZM28.5395 26.8107V26.2654C28.5395 26.1148 28.4174 25.9928 28.2668 25.9928H25.5402C25.3896 25.9928 25.2676 26.1148 25.2676 26.2654V26.8107C25.2676 26.9614 25.3896 27.0834 25.5402 27.0834H28.2668C28.4174 27.0834 28.5395 26.9614 28.5395 26.8107Z" fill="#113247"/>
</g>
</g>
<defs>
<clipPath id="clip0_903_2802">
<rect width="349" height="169" fill="white"/>
</clipPath>
<clipPath id="clip1_903_2802">
<rect width="17.45" height="17.45" fill="white" transform="translate(141.066 122.517)"/>
</clipPath>
<clipPath id="clip2_903_2802">
<rect width="17.45" height="17.45" fill="white" transform="translate(243.141 122.517)"/>
</clipPath>
<clipPath id="clip3_903_2802">
<rect width="17.45" height="17.45" fill="white" transform="translate(20.3594 21.085)"/>
</clipPath>
</defs>
</svg>
