<svg width="16" height="16" viewBox="0 0 16 16" fill="none" xmlns="http://www.w3.org/2000/svg">
<g id="Frame">
<path id="Vector" d="M9.136 2.85586C9.07437 2.79127 9.00039 2.73971 8.91845 2.70425C8.83651 2.66879 8.74829 2.65015 8.65901 2.64944C8.56973 2.64872 8.48122 2.66594 8.39873 2.70009C8.31623 2.73423 8.24143 2.78459 8.17877 2.84819C8.11611 2.91179 8.06687 2.98733 8.03395 3.07032C8.00104 3.15331 7.98513 3.24207 7.98717 3.33133C7.98922 3.42059 8.00917 3.50852 8.04584 3.58992C8.08251 3.67133 8.13516 3.74453 8.20067 3.8052L11.78 7.3332H7.22333H2.66667C2.48986 7.3332 2.32029 7.40344 2.19526 7.52846C2.07024 7.65348 2 7.82305 2 7.99987C2 8.17668 2.07024 8.34625 2.19526 8.47127C2.32029 8.59629 2.48986 8.66653 2.66667 8.66653H11.7767L8.2 12.1899C8.0804 12.3152 8.0143 12.4822 8.01569 12.6554C8.01708 12.8287 8.08585 12.9946 8.20744 13.118C8.32903 13.2414 8.49389 13.3126 8.66709 13.3166C8.84029 13.3205 9.00823 13.2569 9.13533 13.1392L13.752 8.5912C13.8306 8.51367 13.893 8.4213 13.9356 8.31944C13.9782 8.21758 14.0002 8.10827 14.0002 7.99786C14.0002 7.88746 13.9782 7.77815 13.9356 7.67629C13.893 7.57443 13.8306 7.48206 13.752 7.40453L9.13533 2.85586H9.136Z" fill="white"/>
</g>
</svg>
