<svg width="236" height="80" viewBox="0 0 236 80" fill="none" xmlns="http://www.w3.org/2000/svg">
<rect width="236" height="80" fill="white"/>
<path d="M43 45C42.9983 46.5908 42.3657 48.116 41.2408 49.2408C40.116 50.3657 38.5908 50.9983 37 51H35V53C35 53.2652 34.8946 53.5196 34.7071 53.7071C34.5196 53.8946 34.2652 54 34 54C33.7348 54 33.4804 53.8946 33.2929 53.7071C33.1054 53.5196 33 53.2652 33 53V51H31C29.4092 50.9983 27.884 50.3657 26.7592 49.2408C25.6343 48.116 25.0017 46.5908 25 45C25 44.7348 25.1054 44.4804 25.2929 44.2929C25.4804 44.1054 25.7348 44 26 44C26.2652 44 26.5196 44.1054 26.7071 44.2929C26.8946 44.4804 27 44.7348 27 45C27 46.0609 27.4214 47.0783 28.1716 47.8284C28.9217 48.5786 29.9391 49 31 49H37C38.0609 49 39.0783 48.5786 39.8284 47.8284C40.5786 47.0783 41 46.0609 41 45C41 43.9391 40.5786 42.9217 39.8284 42.1716C39.0783 41.4214 38.0609 41 37 41H32C30.4087 41 28.8826 40.3679 27.7574 39.2426C26.6321 38.1174 26 36.5913 26 35C26 33.4087 26.6321 31.8826 27.7574 30.7574C28.8826 29.6321 30.4087 29 32 29H33V27C33 26.7348 33.1054 26.4804 33.2929 26.2929C33.4804 26.1054 33.7348 26 34 26C34.2652 26 34.5196 26.1054 34.7071 26.2929C34.8946 26.4804 35 26.7348 35 27V29H36C37.5908 29.0017 39.116 29.6343 40.2408 30.7592C41.3657 31.884 41.9983 33.4092 42 35C42 35.2652 41.8946 35.5196 41.7071 35.7071C41.5196 35.8946 41.2652 36 41 36C40.7348 36 40.4804 35.8946 40.2929 35.7071C40.1054 35.5196 40 35.2652 40 35C40 33.9391 39.5786 32.9217 38.8284 32.1716C38.0783 31.4214 37.0609 31 36 31H32C30.9391 31 29.9217 31.4214 29.1716 32.1716C28.4214 32.9217 28 33.9391 28 35C28 36.0609 28.4214 37.0783 29.1716 37.8284C29.9217 38.5786 30.9391 39 32 39H37C38.5908 39.0017 40.116 39.6343 41.2408 40.7592C42.3657 41.884 42.9983 43.4092 43 45Z" fill="#113247"/>
<path d="M72.2976 26.0447C72.174 25.657 72.0078 25.3097 71.799 25.0028C71.5945 24.6918 71.3494 24.4276 71.0639 24.2102C70.7784 23.9886 70.4524 23.8203 70.0859 23.7053C69.7237 23.5902 69.3253 23.5327 68.8906 23.5327C68.1534 23.5327 67.4886 23.7223 66.8963 24.1016C66.304 24.4808 65.8352 25.0369 65.4901 25.7699C65.1491 26.4986 64.9787 27.3913 64.9787 28.4482C64.9787 29.5092 65.1513 30.4062 65.4964 31.1392C65.8416 31.8722 66.3146 32.4283 66.9155 32.8075C67.5163 33.1868 68.2003 33.3764 68.9673 33.3764C69.679 33.3764 70.299 33.2315 70.8274 32.9418C71.3601 32.652 71.7713 32.2429 72.0611 31.7145C72.3551 31.1818 72.5021 30.5554 72.5021 29.8352L73.0135 29.9311H69.2678V28.3011H74.4134V29.7905C74.4134 30.8899 74.179 31.8445 73.7102 32.6541C73.2457 33.4595 72.6023 34.0817 71.7798 34.5206C70.9616 34.9595 70.0241 35.179 68.9673 35.179C67.7827 35.179 66.7429 34.9062 65.848 34.3608C64.9574 33.8153 64.2628 33.0419 63.7642 32.0405C63.2656 31.0348 63.0163 29.8416 63.0163 28.4609C63.0163 27.4169 63.1612 26.4794 63.451 25.6484C63.7408 24.8175 64.1477 24.1122 64.6719 23.5327C65.2003 22.9489 65.8203 22.5036 66.532 22.1967C67.2479 21.8857 68.0298 21.7301 68.8778 21.7301C69.5852 21.7301 70.2436 21.8345 70.853 22.0433C71.4666 22.2521 72.0121 22.5483 72.4893 22.9318C72.9709 23.3153 73.3693 23.7713 73.6847 24.2997C74 24.8239 74.2131 25.4055 74.3239 26.0447H72.2976ZM80.9988 35.1982C80.0314 35.1982 79.1983 34.9915 78.4995 34.5781C77.8049 34.1605 77.2679 33.5746 76.8887 32.8203C76.5137 32.0618 76.3262 31.1733 76.3262 30.1548C76.3262 29.1491 76.5137 28.2628 76.8887 27.4957C77.2679 26.7287 77.7963 26.13 78.4739 25.6996C79.1557 25.2692 79.9526 25.054 80.8645 25.054C81.4185 25.054 81.9554 25.1456 82.4753 25.3288C82.9952 25.5121 83.4618 25.7997 83.8752 26.1918C84.2885 26.5838 84.6145 27.093 84.8532 27.7195C85.0918 28.3416 85.2111 29.098 85.2111 29.9886V30.6662H77.4064V29.2344H83.3382C83.3382 28.7315 83.236 28.2862 83.0314 27.8984C82.8269 27.5064 82.5392 27.1974 82.1685 26.9716C81.802 26.7457 81.3716 26.6328 80.8773 26.6328C80.3404 26.6328 79.8716 26.7649 79.4711 27.0291C79.0748 27.2891 78.7679 27.63 78.5506 28.0518C78.3375 28.4695 78.231 28.9233 78.231 29.4134V30.532C78.231 31.1882 78.3461 31.7464 78.5762 32.2067C78.8105 32.6669 79.1365 33.0185 79.5542 33.2614C79.9718 33.5 80.4597 33.6193 81.0179 33.6193C81.3801 33.6193 81.7104 33.5682 82.0087 33.4659C82.307 33.3594 82.5648 33.2017 82.7821 32.9929C82.9995 32.7841 83.1657 32.5263 83.2807 32.2195L85.0897 32.5455C84.9448 33.0781 84.6848 33.5447 84.3098 33.9453C83.9391 34.3416 83.4725 34.6506 82.91 34.8722C82.3517 35.0895 81.7147 35.1982 80.9988 35.1982ZM91.9148 25.1818V26.7159H86.5518V25.1818H91.9148ZM87.9901 22.8295H89.9013V32.1172C89.9013 32.4879 89.9567 32.767 90.0675 32.9545C90.1783 33.1378 90.321 33.2635 90.4957 33.3317C90.6747 33.3956 90.8686 33.4276 91.0774 33.4276C91.2308 33.4276 91.3651 33.4169 91.4801 33.3956C91.5952 33.3743 91.6847 33.3572 91.7486 33.3445L92.0938 34.9233C91.983 34.9659 91.8253 35.0085 91.6207 35.0511C91.4162 35.098 91.1605 35.1236 90.8537 35.1278C90.3509 35.1364 89.8821 35.0469 89.4474 34.8594C89.0128 34.6719 88.6612 34.3821 88.3928 33.9901C88.1243 33.598 87.9901 33.1058 87.9901 32.5135V22.8295ZM103.376 25.1818V26.7159H98.0128V25.1818H103.376ZM99.451 22.8295H101.362V32.1172C101.362 32.4879 101.418 32.767 101.528 32.9545C101.639 33.1378 101.782 33.2635 101.957 33.3317C102.136 33.3956 102.33 33.4276 102.538 33.4276C102.692 33.4276 102.826 33.4169 102.941 33.3956C103.056 33.3743 103.146 33.3572 103.21 33.3445L103.555 34.9233C103.444 34.9659 103.286 35.0085 103.082 35.0511C102.877 35.098 102.621 35.1236 102.315 35.1278C101.812 35.1364 101.343 35.0469 100.908 34.8594C100.474 34.6719 100.122 34.3821 99.8537 33.9901C99.5852 33.598 99.451 33.1058 99.451 32.5135V22.8295ZM107.612 29.1705V35H105.701V21.9091H107.586V26.7798H107.708C107.938 26.2514 108.29 25.8317 108.763 25.5206C109.236 25.2095 109.854 25.054 110.616 25.054C111.29 25.054 111.878 25.1925 112.381 25.4695C112.888 25.7464 113.28 26.1598 113.557 26.7095C113.838 27.255 113.979 27.9368 113.979 28.755V35H112.067V28.9851C112.067 28.2649 111.882 27.7067 111.511 27.3104C111.14 26.9098 110.625 26.7095 109.964 26.7095C109.513 26.7095 109.108 26.8054 108.75 26.9972C108.396 27.1889 108.117 27.4702 107.912 27.8409C107.712 28.2074 107.612 28.6506 107.612 29.1705ZM120.76 35.1982C119.793 35.1982 118.96 34.9915 118.261 34.5781C117.567 34.1605 117.03 33.5746 116.65 32.8203C116.275 32.0618 116.088 31.1733 116.088 30.1548C116.088 29.1491 116.275 28.2628 116.65 27.4957C117.03 26.7287 117.558 26.13 118.236 25.6996C118.917 25.2692 119.714 25.054 120.626 25.054C121.18 25.054 121.717 25.1456 122.237 25.3288C122.757 25.5121 123.224 25.7997 123.637 26.1918C124.05 26.5838 124.376 27.093 124.615 27.7195C124.854 28.3416 124.973 29.098 124.973 29.9886V30.6662H117.168V29.2344H123.1C123.1 28.7315 122.998 28.2862 122.793 27.8984C122.589 27.5064 122.301 27.1974 121.93 26.9716C121.564 26.7457 121.133 26.6328 120.639 26.6328C120.102 26.6328 119.633 26.7649 119.233 27.0291C118.836 27.2891 118.53 27.63 118.312 28.0518C118.099 28.4695 117.993 28.9233 117.993 29.4134V30.532C117.993 31.1882 118.108 31.7464 118.338 32.2067C118.572 32.6669 118.898 33.0185 119.316 33.2614C119.733 33.5 120.221 33.6193 120.78 33.6193C121.142 33.6193 121.472 33.5682 121.77 33.4659C122.069 33.3594 122.327 33.2017 122.544 32.9929C122.761 32.7841 122.927 32.5263 123.042 32.2195L124.851 32.5455C124.706 33.0781 124.447 33.5447 124.072 33.9453C123.701 34.3416 123.234 34.6506 122.672 34.8722C122.113 35.0895 121.476 35.1982 120.76 35.1982ZM132.01 35V21.9091H136.805C137.733 21.9091 138.503 22.0625 139.112 22.3693C139.721 22.6719 140.177 23.0831 140.48 23.603C140.782 24.1186 140.934 24.7003 140.934 25.348C140.934 25.8935 140.834 26.3537 140.633 26.7287C140.433 27.0994 140.165 27.3977 139.828 27.6236C139.496 27.8452 139.129 28.0071 138.729 28.1094V28.2372C139.163 28.2585 139.587 28.3991 140.001 28.6591C140.418 28.9148 140.763 29.2791 141.036 29.7521C141.309 30.2251 141.445 30.8004 141.445 31.478C141.445 32.147 141.287 32.7479 140.972 33.2805C140.661 33.8089 140.18 34.2287 139.528 34.5398C138.876 34.8466 138.042 35 137.028 35H132.01ZM133.986 33.3061H136.836C137.782 33.3061 138.46 33.1229 138.869 32.7564C139.278 32.3899 139.483 31.9318 139.483 31.3821C139.483 30.9687 139.378 30.5895 139.17 30.2443C138.961 29.8991 138.662 29.6243 138.275 29.4197C137.891 29.2152 137.435 29.1129 136.907 29.1129H133.986V33.3061ZM133.986 27.5724H136.632C137.075 27.5724 137.474 27.4872 137.827 27.3168C138.185 27.1463 138.469 26.9077 138.677 26.6009C138.89 26.2898 138.997 25.9233 138.997 25.5014C138.997 24.9602 138.807 24.5064 138.428 24.1399C138.049 23.7734 137.467 23.5902 136.683 23.5902H133.986V27.5724ZM147.866 35.1982C146.899 35.1982 146.066 34.9915 145.367 34.5781C144.672 34.1605 144.135 33.5746 143.756 32.8203C143.381 32.0618 143.193 31.1733 143.193 30.1548C143.193 29.1491 143.381 28.2628 143.756 27.4957C144.135 26.7287 144.664 26.13 145.341 25.6996C146.023 25.2692 146.82 25.054 147.732 25.054C148.286 25.054 148.823 25.1456 149.343 25.3288C149.862 25.5121 150.329 25.7997 150.742 26.1918C151.156 26.5838 151.482 27.093 151.72 27.7195C151.959 28.3416 152.078 29.098 152.078 29.9886V30.6662H144.274V29.2344H150.205C150.205 28.7315 150.103 28.2862 149.899 27.8984C149.694 27.5064 149.406 27.1974 149.036 26.9716C148.669 26.7457 148.239 26.6328 147.744 26.6328C147.208 26.6328 146.739 26.7649 146.338 27.0291C145.942 27.2891 145.635 27.63 145.418 28.0518C145.205 28.4695 145.098 28.9233 145.098 29.4134V30.532C145.098 31.1882 145.213 31.7464 145.443 32.2067C145.678 32.6669 146.004 33.0185 146.421 33.2614C146.839 33.5 147.327 33.6193 147.885 33.6193C148.247 33.6193 148.578 33.5682 148.876 33.4659C149.174 33.3594 149.432 33.2017 149.649 32.9929C149.867 32.7841 150.033 32.5263 150.148 32.2195L151.957 32.5455C151.812 33.0781 151.552 33.5447 151.177 33.9453C150.806 34.3416 150.34 34.6506 149.777 34.8722C149.219 35.0895 148.582 35.1982 147.866 35.1982ZM161.556 27.5788L159.824 27.8857C159.751 27.6641 159.636 27.4531 159.479 27.2528C159.325 27.0526 159.116 26.8885 158.852 26.7607C158.588 26.6328 158.258 26.5689 157.862 26.5689C157.32 26.5689 156.869 26.6903 156.506 26.9332C156.144 27.1719 155.963 27.4808 155.963 27.8601C155.963 28.1882 156.085 28.4524 156.327 28.6527C156.57 28.853 156.962 29.017 157.504 29.1449L159.063 29.5028C159.967 29.7116 160.64 30.0334 161.083 30.468C161.526 30.9027 161.748 31.4673 161.748 32.1619C161.748 32.75 161.577 33.2741 161.237 33.7344C160.9 34.1903 160.429 34.5483 159.824 34.8082C159.223 35.0682 158.526 35.1982 157.734 35.1982C156.634 35.1982 155.737 34.9638 155.043 34.495C154.348 34.022 153.922 33.3509 153.764 32.4815L155.612 32.2003C155.727 32.6818 155.963 33.0462 156.321 33.2933C156.679 33.5362 157.146 33.6577 157.721 33.6577C158.347 33.6577 158.848 33.5277 159.223 33.2678C159.598 33.0036 159.786 32.6818 159.786 32.3026C159.786 31.9957 159.67 31.7379 159.44 31.5291C159.214 31.3203 158.867 31.1626 158.398 31.0561L156.737 30.6918C155.82 30.483 155.143 30.1506 154.704 29.6946C154.269 29.2386 154.052 28.6612 154.052 27.9624C154.052 27.3828 154.214 26.8757 154.538 26.4411C154.862 26.0064 155.309 25.6676 155.88 25.4247C156.451 25.1776 157.105 25.054 157.842 25.054C158.903 25.054 159.739 25.2841 160.348 25.7443C160.957 26.2003 161.36 26.8118 161.556 27.5788ZM168.432 25.1818V26.7159H163.069V25.1818H168.432ZM164.508 22.8295H166.419V32.1172C166.419 32.4879 166.474 32.767 166.585 32.9545C166.696 33.1378 166.839 33.2635 167.013 33.3317C167.192 33.3956 167.386 33.4276 167.595 33.4276C167.748 33.4276 167.883 33.4169 167.998 33.3956C168.113 33.3743 168.202 33.3572 168.266 33.3445L168.611 34.9233C168.501 34.9659 168.343 35.0085 168.138 35.0511C167.934 35.098 167.678 35.1236 167.371 35.1278C166.868 35.1364 166.4 35.0469 165.965 34.8594C165.53 34.6719 165.179 34.3821 164.91 33.9901C164.642 33.598 164.508 33.1058 164.508 32.5135V22.8295ZM175.464 35V21.9091H180.13C181.148 21.9091 181.992 22.0945 182.661 22.4652C183.33 22.8359 183.831 23.343 184.163 23.9865C184.496 24.6257 184.662 25.3459 184.662 26.147C184.662 26.9524 184.493 27.6768 184.157 28.3203C183.824 28.9595 183.322 29.4666 182.648 29.8416C181.979 30.2124 181.138 30.3977 180.123 30.3977H176.915V28.723H179.944C180.588 28.723 181.11 28.6122 181.51 28.3906C181.911 28.1648 182.205 27.858 182.393 27.4702C182.58 27.0824 182.674 26.6413 182.674 26.147C182.674 25.6527 182.58 25.2138 182.393 24.8303C182.205 24.4467 181.909 24.1463 181.504 23.929C181.104 23.7116 180.575 23.603 179.919 23.603H177.439V35H175.464ZM186.824 35V25.1818H188.671V26.7415H188.773C188.952 26.2131 189.268 25.7976 189.719 25.495C190.175 25.1882 190.691 25.0348 191.266 25.0348C191.386 25.0348 191.526 25.0391 191.688 25.0476C191.854 25.0561 191.984 25.0668 192.078 25.0795V26.9077C192.001 26.8864 191.865 26.8629 191.669 26.8374C191.473 26.8075 191.277 26.7926 191.081 26.7926C190.629 26.7926 190.227 26.8885 189.873 27.0803C189.523 27.2678 189.246 27.5298 189.042 27.8665C188.837 28.1989 188.735 28.5781 188.735 29.0043V35H186.824ZM193.732 35V25.1818H195.643V35H193.732ZM194.697 23.6669C194.365 23.6669 194.079 23.5561 193.841 23.3345C193.606 23.1087 193.489 22.8402 193.489 22.5291C193.489 22.2138 193.606 21.9453 193.841 21.7237C194.079 21.4979 194.365 21.3849 194.697 21.3849C195.03 21.3849 195.313 21.4979 195.547 21.7237C195.786 21.9453 195.905 22.2138 195.905 22.5291C195.905 22.8402 195.786 23.1087 195.547 23.3345C195.313 23.5561 195.03 23.6669 194.697 23.6669ZM202.35 35.1982C201.4 35.1982 200.582 34.983 199.896 34.5526C199.214 34.1179 198.69 33.5192 198.323 32.7564C197.957 31.9936 197.773 31.12 197.773 30.1357C197.773 29.1385 197.961 28.2585 198.336 27.4957C198.711 26.7287 199.239 26.13 199.921 25.6996C200.603 25.2692 201.406 25.054 202.331 25.054C203.077 25.054 203.741 25.1925 204.325 25.4695C204.909 25.7422 205.38 26.1257 205.738 26.62C206.1 27.1143 206.315 27.6918 206.384 28.3523H204.523C204.421 27.892 204.187 27.4957 203.82 27.1634C203.458 26.831 202.972 26.6648 202.363 26.6648C201.83 26.6648 201.364 26.8054 200.963 27.0866C200.567 27.3636 200.258 27.7599 200.036 28.2756C199.815 28.7869 199.704 29.392 199.704 30.0909C199.704 30.8068 199.813 31.4247 200.03 31.9446C200.247 32.4645 200.554 32.8672 200.95 33.1527C201.351 33.4382 201.822 33.581 202.363 33.581C202.725 33.581 203.053 33.5149 203.347 33.3828C203.646 33.2464 203.895 33.0526 204.095 32.8011C204.3 32.5497 204.442 32.2472 204.523 31.8935H206.384C206.315 32.5284 206.109 33.0952 205.763 33.5938C205.418 34.0923 204.956 34.4844 204.376 34.7699C203.801 35.0554 203.126 35.1982 202.35 35.1982ZM212.659 35.1982C211.692 35.1982 210.858 34.9915 210.16 34.5781C209.465 34.1605 208.928 33.5746 208.549 32.8203C208.174 32.0618 207.986 31.1733 207.986 30.1548C207.986 29.1491 208.174 28.2628 208.549 27.4957C208.928 26.7287 209.456 26.13 210.134 25.6996C210.816 25.2692 211.613 25.054 212.525 25.054C213.079 25.054 213.616 25.1456 214.135 25.3288C214.655 25.5121 215.122 25.7997 215.535 26.1918C215.949 26.5838 216.275 27.093 216.513 27.7195C216.752 28.3416 216.871 29.098 216.871 29.9886V30.6662H209.067V29.2344H214.998C214.998 28.7315 214.896 28.2862 214.692 27.8984C214.487 27.5064 214.199 27.1974 213.829 26.9716C213.462 26.7457 213.032 26.6328 212.537 26.6328C212.001 26.6328 211.532 26.7649 211.131 27.0291C210.735 27.2891 210.428 27.63 210.211 28.0518C209.998 28.4695 209.891 28.9233 209.891 29.4134V30.532C209.891 31.1882 210.006 31.7464 210.236 32.2067C210.471 32.6669 210.797 33.0185 211.214 33.2614C211.632 33.5 212.12 33.6193 212.678 33.6193C213.04 33.6193 213.371 33.5682 213.669 33.4659C213.967 33.3594 214.225 33.2017 214.442 32.9929C214.66 32.7841 214.826 32.5263 214.941 32.2195L216.75 32.5455C216.605 33.0781 216.345 33.5447 215.97 33.9453C215.599 34.3416 215.133 34.6506 214.57 34.8722C214.012 35.0895 213.375 35.1982 212.659 35.1982ZM67.9574 49.1818V50.7159H62.4091V49.1818H67.9574ZM63.9304 59V48.044C63.9304 47.4304 64.0646 46.9212 64.3331 46.5163C64.6016 46.1072 64.9574 45.8026 65.4006 45.6023C65.8438 45.3977 66.3253 45.2955 66.8452 45.2955C67.2287 45.2955 67.5568 45.3274 67.8295 45.3913C68.1023 45.451 68.3047 45.5064 68.4368 45.5575L67.9893 47.1044C67.8999 47.0788 67.7848 47.049 67.6442 47.0149C67.5036 46.9766 67.3331 46.9574 67.1328 46.9574C66.6683 46.9574 66.3359 47.0724 66.1357 47.3026C65.9396 47.5327 65.8416 47.8651 65.8416 48.2997V59H63.9304ZM73.6783 59.1982C72.7578 59.1982 71.9545 58.9872 71.2685 58.5653C70.5824 58.1435 70.0497 57.5533 69.6705 56.7947C69.2912 56.0362 69.1016 55.1499 69.1016 54.1357C69.1016 53.1172 69.2912 52.2266 69.6705 51.4638C70.0497 50.701 70.5824 50.1087 71.2685 49.6868C71.9545 49.2649 72.7578 49.054 73.6783 49.054C74.5987 49.054 75.402 49.2649 76.0881 49.6868C76.7741 50.1087 77.3068 50.701 77.6861 51.4638C78.0653 52.2266 78.255 53.1172 78.255 54.1357C78.255 55.1499 78.0653 56.0362 77.6861 56.7947C77.3068 57.5533 76.7741 58.1435 76.0881 58.5653C75.402 58.9872 74.5987 59.1982 73.6783 59.1982ZM73.6847 57.5938C74.2813 57.5938 74.7756 57.4361 75.1676 57.1207C75.5597 56.8054 75.8494 56.3857 76.0369 55.8615C76.2287 55.3374 76.3246 54.7599 76.3246 54.1293C76.3246 53.5028 76.2287 52.9276 76.0369 52.4034C75.8494 51.875 75.5597 51.451 75.1676 51.1314C74.7756 50.8118 74.2813 50.652 73.6847 50.652C73.0838 50.652 72.5852 50.8118 72.1889 51.1314C71.7969 51.451 71.505 51.875 71.3132 52.4034C71.1257 52.9276 71.032 53.5028 71.032 54.1293C71.032 54.7599 71.1257 55.3374 71.3132 55.8615C71.505 56.3857 71.7969 56.8054 72.1889 57.1207C72.5852 57.4361 73.0838 57.5938 73.6847 57.5938ZM80.3883 59V49.1818H82.2356V50.7415H82.3379C82.5169 50.2131 82.8322 49.7976 83.2839 49.495C83.7399 49.1882 84.2555 49.0348 84.8308 49.0348C84.9501 49.0348 85.0907 49.0391 85.2527 49.0476C85.4189 49.0561 85.5488 49.0668 85.6426 49.0795V50.9077C85.5659 50.8864 85.4295 50.8629 85.2335 50.8374C85.0375 50.8075 84.8414 50.7926 84.6454 50.7926C84.1937 50.7926 83.791 50.8885 83.4373 51.0803C83.0879 51.2678 82.8109 51.5298 82.6064 51.8665C82.4018 52.1989 82.2995 52.5781 82.2995 53.0043V59H80.3883ZM91.2037 45.9091H93.4473L96.867 51.8601H97.0076L100.427 45.9091H102.671L97.9217 53.8608V59H95.9529V53.8608L91.2037 45.9091ZM106.901 59.1982C105.98 59.1982 105.177 58.9872 104.491 58.5653C103.805 58.1435 103.272 57.5533 102.893 56.7947C102.514 56.0362 102.324 55.1499 102.324 54.1357C102.324 53.1172 102.514 52.2266 102.893 51.4638C103.272 50.701 103.805 50.1087 104.491 49.6868C105.177 49.2649 105.98 49.054 106.901 49.054C107.821 49.054 108.625 49.2649 109.311 49.6868C109.997 50.1087 110.529 50.701 110.909 51.4638C111.288 52.2266 111.478 53.1172 111.478 54.1357C111.478 55.1499 111.288 56.0362 110.909 56.7947C110.529 57.5533 109.997 58.1435 109.311 58.5653C108.625 58.9872 107.821 59.1982 106.901 59.1982ZM106.907 57.5938C107.504 57.5938 107.998 57.4361 108.39 57.1207C108.782 56.8054 109.072 56.3857 109.26 55.8615C109.451 55.3374 109.547 54.7599 109.547 54.1293C109.547 53.5028 109.451 52.9276 109.26 52.4034C109.072 51.875 108.782 51.451 108.39 51.1314C107.998 50.8118 107.504 50.652 106.907 50.652C106.306 50.652 105.808 50.8118 105.412 51.1314C105.02 51.451 104.728 51.875 104.536 52.4034C104.348 52.9276 104.255 53.5028 104.255 54.1293C104.255 54.7599 104.348 55.3374 104.536 55.8615C104.728 56.3857 105.02 56.8054 105.412 57.1207C105.808 57.4361 106.306 57.5938 106.907 57.5938ZM119.83 54.9283V49.1818H121.748V59H119.869V57.2997H119.767C119.541 57.8239 119.178 58.2607 118.68 58.6101C118.186 58.9553 117.57 59.1278 116.833 59.1278C116.202 59.1278 115.644 58.9893 115.158 58.7124C114.676 58.4311 114.297 58.0156 114.02 57.4659C113.747 56.9162 113.611 56.2365 113.611 55.4268V49.1818H115.522V55.1967C115.522 55.8658 115.708 56.3984 116.078 56.7947C116.449 57.1911 116.931 57.3892 117.523 57.3892C117.881 57.3892 118.237 57.2997 118.59 57.1207C118.948 56.9418 119.244 56.6712 119.479 56.3089C119.718 55.9467 119.835 55.4865 119.83 54.9283ZM124.316 59V49.1818H126.163V50.7415H126.266C126.445 50.2131 126.76 49.7976 127.212 49.495C127.668 49.1882 128.183 49.0348 128.759 49.0348C128.878 49.0348 129.018 49.0391 129.18 49.0476C129.347 49.0561 129.477 49.0668 129.57 49.0795V50.9077C129.494 50.8864 129.357 50.8629 129.161 50.8374C128.965 50.8075 128.769 50.7926 128.573 50.7926C128.121 50.7926 127.719 50.8885 127.365 51.0803C127.016 51.2678 126.739 51.5298 126.534 51.8665C126.33 52.1989 126.227 52.5781 126.227 53.0043V59H124.316ZM136.141 59V45.9091H138.116V51.598H144.643V45.9091H146.624V59H144.643V53.2919H138.116V59H136.141ZM153.483 59.1982C152.563 59.1982 151.759 58.9872 151.073 58.5653C150.387 58.1435 149.854 57.5533 149.475 56.7947C149.096 56.0362 148.906 55.1499 148.906 54.1357C148.906 53.1172 149.096 52.2266 149.475 51.4638C149.854 50.701 150.387 50.1087 151.073 49.6868C151.759 49.2649 152.563 49.054 153.483 49.054C154.403 49.054 155.207 49.2649 155.893 49.6868C156.579 50.1087 157.112 50.701 157.491 51.4638C157.87 52.2266 158.06 53.1172 158.06 54.1357C158.06 55.1499 157.87 56.0362 157.491 56.7947C157.112 57.5533 156.579 58.1435 155.893 58.5653C155.207 58.9872 154.403 59.1982 153.483 59.1982ZM153.489 57.5938C154.086 57.5938 154.58 57.4361 154.972 57.1207C155.364 56.8054 155.654 56.3857 155.842 55.8615C156.033 55.3374 156.129 54.7599 156.129 54.1293C156.129 53.5028 156.033 52.9276 155.842 52.4034C155.654 51.875 155.364 51.451 154.972 51.1314C154.58 50.8118 154.086 50.652 153.489 50.652C152.888 50.652 152.39 50.8118 151.994 51.1314C151.602 51.451 151.31 51.875 151.118 52.4034C150.93 52.9276 150.837 53.5028 150.837 54.1293C150.837 54.7599 150.93 55.3374 151.118 55.8615C151.31 56.3857 151.602 56.8054 151.994 57.1207C152.39 57.4361 152.888 57.5938 153.489 57.5938ZM160.193 59V49.1818H162.028V50.7798H162.149C162.354 50.2386 162.688 49.8168 163.153 49.5142C163.617 49.2074 164.173 49.054 164.821 49.054C165.477 49.054 166.027 49.2074 166.47 49.5142C166.917 49.821 167.248 50.2429 167.461 50.7798H167.563C167.797 50.2557 168.17 49.8381 168.682 49.527C169.193 49.2116 169.802 49.054 170.51 49.054C171.4 49.054 172.127 49.3331 172.689 49.8913C173.256 50.4496 173.54 51.2912 173.54 52.4162V59H171.628V52.5952C171.628 51.9304 171.447 51.4489 171.085 51.1506C170.723 50.8523 170.29 50.7031 169.787 50.7031C169.165 50.7031 168.682 50.8949 168.336 51.2784C167.991 51.6577 167.819 52.1456 167.819 52.7422V59H165.914V52.4737C165.914 51.9411 165.748 51.5128 165.415 51.1889C165.083 50.8651 164.65 50.7031 164.118 50.7031C163.756 50.7031 163.421 50.799 163.114 50.9908C162.812 51.1783 162.567 51.4403 162.379 51.777C162.196 52.1136 162.104 52.5036 162.104 52.9467V59H160.193ZM180.333 59.1982C179.365 59.1982 178.532 58.9915 177.833 58.5781C177.139 58.1605 176.602 57.5746 176.223 56.8203C175.848 56.0618 175.66 55.1733 175.66 54.1548C175.66 53.1491 175.848 52.2628 176.223 51.4957C176.602 50.7287 177.13 50.13 177.808 49.6996C178.49 49.2692 179.287 49.054 180.199 49.054C180.752 49.054 181.289 49.1456 181.809 49.3288C182.329 49.5121 182.796 49.7997 183.209 50.1918C183.623 50.5838 183.949 51.093 184.187 51.7195C184.426 52.3416 184.545 53.098 184.545 53.9886V54.6662H176.74V53.2344H182.672C182.672 52.7315 182.57 52.2862 182.365 51.8984C182.161 51.5064 181.873 51.1974 181.502 50.9716C181.136 50.7457 180.706 50.6328 180.211 50.6328C179.674 50.6328 179.206 50.7649 178.805 51.0291C178.409 51.2891 178.102 51.63 177.885 52.0518C177.672 52.4695 177.565 52.9233 177.565 53.4134V54.532C177.565 55.1882 177.68 55.7464 177.91 56.2067C178.145 56.6669 178.471 57.0185 178.888 57.2614C179.306 57.5 179.794 57.6193 180.352 57.6193C180.714 57.6193 181.044 57.5682 181.343 57.4659C181.641 57.3594 181.899 57.2017 182.116 56.9929C182.333 56.7841 182.5 56.5263 182.615 56.2195L184.424 56.5455C184.279 57.0781 184.019 57.5447 183.644 57.9453C183.273 58.3416 182.806 58.6506 182.244 58.8722C181.686 59.0895 181.049 59.1982 180.333 59.1982Z" fill="#113247"/>
</svg>
