<svg width="70" height="70" viewBox="0 0 70 70" fill="none" xmlns="http://www.w3.org/2000/svg">
<rect width="70" height="70" rx="12" fill="#E8FCA4"/>
<path d="M52.5 47.5006H50V30.0006C50 29.3376 49.7366 28.7017 49.2678 28.2329C48.7989 27.764 48.163 27.5006 47.5 27.5006H37.5V20.0006C37.5003 19.5479 37.3777 19.1036 37.1452 18.7152C36.9127 18.3267 36.5791 18.0087 36.18 17.795C35.7808 17.5813 35.3312 17.48 34.879 17.502C34.4268 17.5239 33.9891 17.6681 33.6125 17.9194L21.1125 26.2506C20.7696 26.4794 20.4886 26.7895 20.2945 27.1531C20.1004 27.5168 19.9992 27.9228 20 28.335V47.5006H17.5C17.1685 47.5006 16.8505 47.6323 16.6161 47.8668C16.3817 48.1012 16.25 48.4191 16.25 48.7506C16.25 49.0822 16.3817 49.4001 16.6161 49.6345C16.8505 49.869 17.1685 50.0006 17.5 50.0006H52.5C52.8315 50.0006 53.1495 49.869 53.3839 49.6345C53.6183 49.4001 53.75 49.0822 53.75 48.7506C53.75 48.4191 53.6183 48.1012 53.3839 47.8668C53.1495 47.6323 52.8315 47.5006 52.5 47.5006ZM47.5 30.0006V47.5006H37.5V30.0006H47.5ZM22.5 28.335L35 20.0006V47.5006H22.5V28.335ZM32.5 32.5006V35.0006C32.5 35.3322 32.3683 35.6501 32.1339 35.8845C31.8995 36.119 31.5815 36.2506 31.25 36.2506C30.9185 36.2506 30.6005 36.119 30.3661 35.8845C30.1317 35.6501 30 35.3322 30 35.0006V32.5006C30 32.1691 30.1317 31.8512 30.3661 31.6168C30.6005 31.3823 30.9185 31.2506 31.25 31.2506C31.5815 31.2506 31.8995 31.3823 32.1339 31.6168C32.3683 31.8512 32.5 32.1691 32.5 32.5006ZM27.5 32.5006V35.0006C27.5 35.3322 27.3683 35.6501 27.1339 35.8845C26.8995 36.119 26.5815 36.2506 26.25 36.2506C25.9185 36.2506 25.6005 36.119 25.3661 35.8845C25.1317 35.6501 25 35.3322 25 35.0006V32.5006C25 32.1691 25.1317 31.8512 25.3661 31.6168C25.6005 31.3823 25.9185 31.2506 26.25 31.2506C26.5815 31.2506 26.8995 31.3823 27.1339 31.6168C27.3683 31.8512 27.5 32.1691 27.5 32.5006ZM27.5 41.2506V43.7506C27.5 44.0822 27.3683 44.4001 27.1339 44.6345C26.8995 44.869 26.5815 45.0006 26.25 45.0006C25.9185 45.0006 25.6005 44.869 25.3661 44.6345C25.1317 44.4001 25 44.0822 25 43.7506V41.2506C25 40.9191 25.1317 40.6012 25.3661 40.3668C25.6005 40.1323 25.9185 40.0006 26.25 40.0006C26.5815 40.0006 26.8995 40.1323 27.1339 40.3668C27.3683 40.6012 27.5 40.9191 27.5 41.2506ZM32.5 41.2506V43.7506C32.5 44.0822 32.3683 44.4001 32.1339 44.6345C31.8995 44.869 31.5815 45.0006 31.25 45.0006C30.9185 45.0006 30.6005 44.869 30.3661 44.6345C30.1317 44.4001 30 44.0822 30 43.7506V41.2506C30 40.9191 30.1317 40.6012 30.3661 40.3668C30.6005 40.1323 30.9185 40.0006 31.25 40.0006C31.5815 40.0006 31.8995 40.1323 32.1339 40.3668C32.3683 40.6012 32.5 40.9191 32.5 41.2506Z" fill="#113247"/>
</svg>
