<svg width="111" height="134" viewBox="0 0 111 134" fill="none" xmlns="http://www.w3.org/2000/svg">
<path d="M43.1433 134C66.9707 134 86.2867 129 86.2867 122.833C86.2867 116.666 66.9707 111.667 43.1433 111.667C19.3159 111.667 0 116.666 0 122.833C0 129 19.3159 134 43.1433 134Z" fill="#CBE5F4"/>
<path d="M63.3864 81.209C63.3864 81.209 35.6862 41.7532 33.0303 26.2369C30.3745 10.7205 37.9693 7.104 43.8868 7.104C49.8042 7.104 62.4312 18.9804 63.3631 31.8367C63.3631 31.8367 72.1927 15.3405 86.0311 30.8568C99.8695 46.3731 102.921 71.5259 63.3631 81.209H63.3864Z" fill="#FFBDFF"/>
<path d="M101.253 23.7702C87.3832 8.26587 78.5335 24.751 78.5335 24.751C77.5995 11.8851 64.9439 0 59.013 0C58.4059 0 57.7754 0.0466942 57.1216 0.140094C51.5176 0.607093 41.2203 6.53802 37.8579 8.56947C39.6559 7.63547 41.664 7.28518 43.5086 7.28518C46.9644 7.28518 52.6618 11.3014 57.0282 17.2089C57.1917 17.4424 57.3551 17.676 57.5419 17.9095C57.7754 18.2364 58.0089 18.5866 58.2424 18.9369C58.546 19.3805 58.8262 19.8475 59.1064 20.3145C59.2465 20.548 59.3866 20.7815 59.5033 21.015C59.7602 21.482 60.017 21.949 60.2505 22.416C60.3206 22.5561 60.414 22.6962 60.484 22.8596C60.7876 23.4667 61.0444 24.0972 61.3013 24.751C61.3713 24.9378 61.4414 25.1012 61.5114 25.288C61.7449 25.9185 61.9551 26.5489 62.1419 27.1794C62.1419 27.2261 62.1652 27.2727 62.1886 27.3428C62.3754 28.0199 62.5388 28.7205 62.6789 29.421C62.7023 29.5844 62.749 29.7712 62.7723 29.9347C62.8891 30.6352 63.0058 31.359 63.0525 32.0828C63.0525 32.0828 63.2627 31.6859 63.683 31.0554C65.5276 28.3235 71.2717 21.3652 79.6543 25.9885C81.569 27.0393 83.6005 28.6738 85.772 31.1022C85.772 31.1022 85.772 31.1255 85.7954 31.1488C86.169 31.5691 86.5426 32.0128 86.9162 32.4564C87.0329 32.5965 87.1497 32.7366 87.2664 32.9001C87.5233 33.227 87.7801 33.5539 88.037 33.8808C88.1537 34.0443 88.2705 34.2077 88.4106 34.3711C88.6674 34.7214 88.9243 35.095 89.1811 35.4452C89.2745 35.562 89.3446 35.6787 89.438 35.8188C89.7649 36.2858 90.0684 36.7529 90.3486 37.2432C90.442 37.4067 90.5354 37.5701 90.6522 37.7335C90.839 38.0604 91.0491 38.4107 91.2359 38.7376C91.3527 38.9477 91.4694 39.1346 91.5628 39.3447C91.7263 39.6483 91.8897 39.9751 92.0298 40.2787C92.1232 40.4888 92.24 40.699 92.3334 40.9091C92.5435 41.3528 92.7303 41.7731 92.9171 42.2168C93.0339 42.4736 93.1273 42.7304 93.2207 42.9873C93.3374 43.2908 93.4542 43.5944 93.5709 43.8746C93.6643 44.1314 93.7577 44.4116 93.8511 44.6685C93.9212 44.9253 94.0146 45.1589 94.0846 45.4157C94.178 45.6959 94.2481 45.9994 94.3415 46.2796C94.3882 46.4898 94.4582 46.7233 94.5049 46.9334C94.645 47.5639 94.7851 48.171 94.8785 48.8014C94.8785 48.9415 94.9252 49.0817 94.9486 49.2218C94.9953 49.572 95.042 49.8988 95.0887 50.2491C95.0887 50.4125 95.1354 50.5993 95.1354 50.7628C95.1587 51.113 95.1821 51.4633 95.2054 51.8136C95.2054 51.9537 95.2054 52.0938 95.2054 52.2339C95.2521 53.4714 95.1821 54.7323 95.0186 55.9699C95.0186 56.0399 95.0186 56.11 94.9953 56.18C94.9252 56.577 94.8552 56.9973 94.7851 57.3942C94.7851 57.4876 94.7384 57.5577 94.7384 57.6511C94.3648 59.4023 93.7577 61.1536 92.8938 62.8348L92.8237 62.9748C91.9364 64.7028 90.7689 66.384 89.3446 68.0184C89.3446 68.0184 89.3212 68.0651 89.2979 68.0651C88.9476 68.4621 88.574 68.859 88.1771 69.2326C88.1537 69.256 88.1304 69.2793 88.0837 69.326C86.8695 70.5169 85.4918 71.6611 83.9507 72.7819C117.972 62.2277 114.586 38.6676 101.37 23.887L101.253 23.7702Z" fill="#E096E2"/>
<path d="M63.3864 81.209C63.3864 81.209 35.6862 41.7532 33.0303 26.2369C30.3745 10.7205 37.9693 7.104 43.8868 7.104C49.8042 7.104 62.4312 18.9804 63.3631 31.8367C63.3631 31.8367 72.1927 15.3405 86.0311 30.8568C99.8695 46.3731 102.921 71.5259 63.3631 81.209H63.3864Z" stroke="black" stroke-linecap="round" stroke-linejoin="round"/>
</svg>
