<svg width="103" height="159" viewBox="0 0 103 159" fill="none" xmlns="http://www.w3.org/2000/svg">
<path d="M35.7148 144.088C25.6677 141.575 17.7949 136.032 14.6827 130.008C14.5885 130.262 14.5111 130.53 14.4434 130.8C12.5509 138.365 21.382 147.093 34.163 150.29C46.9441 153.488 58.8448 149.947 60.7374 142.383C60.8051 142.112 60.851 141.847 60.8994 141.571C55.3194 145.411 45.7619 146.602 35.7148 144.088Z" fill="#4488E3"/>
<path d="M81.9478 101.115C79.1175 112.428 61.9148 117.876 43.5402 113.279C25.1656 108.682 12.553 95.7844 15.3858 84.4621C15.3858 84.4621 13.3975 87.1571 13.2831 92.1277C13.1201 98.5644 17.0488 103.787 21.6104 108.326C26.1721 112.865 34.504 116.777 42.0587 118.667C47.0339 119.912 52.6156 120.415 57.6828 120.554C69.3365 120.873 79.6801 112.846 81.897 101.4C81.9212 101.304 81.9357 101.205 81.9502 101.106L81.9478 101.115Z" fill="#4488E3"/>
<path d="M57.6801 120.563C52.6129 120.425 47.0313 119.921 42.056 118.677C34.5014 116.786 26.1477 112.838 21.6078 108.335C19.2895 106.031 17.1476 103.555 15.612 100.83L13.502 122.147C11.3701 130.668 21.3144 140.485 35.6992 144.084C50.0839 147.683 63.4822 143.695 65.6116 135.184L75.6511 113.316C71.083 117.993 64.6119 120.758 57.6777 120.573L57.6801 120.563Z" fill="#AED7F2"/>
<path d="M43.5401 113.279C61.9207 117.877 79.1164 112.432 81.9477 101.115C84.779 89.7987 72.1738 76.8969 53.7932 72.2981C35.4126 67.6994 18.217 73.1453 15.3857 84.4617C12.5543 95.7782 25.1595 108.68 43.5401 113.279Z" fill="white"/>
<path d="M43.9298 111.19C61.1366 115.495 77.1502 110.732 79.6972 100.552C82.2442 90.3719 70.36 78.6294 53.1532 74.3244C35.9464 70.0193 19.9328 74.782 17.3858 84.962C14.8389 95.142 26.723 106.884 43.9298 111.19Z" fill="#AED7F2"/>
<path d="M51.2828 41.8185C51.2828 41.8185 37.0332 38.5408 42.7504 24.3062C42.7504 24.3062 55.9588 28.3397 51.2828 41.8185Z" fill="#00D91B"/>
<path d="M59.2864 31.8617C59.2864 31.8617 59.2754 12.2931 78.0472 11.3642C78.0472 11.3642 81.7605 31.931 59.2864 31.8617Z" fill="#00D91B"/>
<path d="M56.0519 50.0023C56.0519 50.0023 57.5071 43.7349 63.8761 43.9221C63.8761 43.9221 63.5778 50.5302 56.0519 50.0023Z" fill="#00D91B"/>
<path d="M71.4973 51.9882C71.4973 51.9882 73.2158 45.6532 82.8984 46.7105C82.8984 46.7105 80.1458 55.5378 71.4973 51.9882Z" fill="#00D91B"/>
<path d="M71.9479 56.2172C71.8847 58.5624 73.5817 63.3088 86.8918 66.3617C86.8918 66.3617 81.279 51.5405 73.4192 54.2756C72.5762 54.5677 71.9746 55.3308 71.9479 56.2172Z" fill="#00D91B"/>
<path d="M43.9298 111.19C59.1891 115.008 73.3914 110.78 75.6514 101.747C77.9113 92.7142 67.3732 82.2967 52.1139 78.4789C36.8545 74.6611 22.6523 78.8888 20.3923 87.9217C18.1323 96.9546 28.6704 107.372 43.9298 111.19Z" fill="#DD5631"/>
<path d="M43.9298 111.19C59.1891 115.008 73.3914 110.78 75.6514 101.747C77.9113 92.7142 67.3732 82.2967 52.1139 78.4789C36.8545 74.6611 22.6523 78.8888 20.3923 87.9217C18.1323 96.9546 28.6704 107.372 43.9298 111.19Z" stroke="black" stroke-miterlimit="10"/>
<path d="M43.9298 111.19C61.1366 115.495 77.1502 110.732 79.6972 100.552C82.2442 90.3719 70.36 78.6294 53.1532 74.3244C35.9464 70.0193 19.9328 74.782 17.3858 84.962C14.8389 95.142 26.723 106.884 43.9298 111.19Z" stroke="black" stroke-miterlimit="10"/>
<path d="M35.7148 144.088C25.6677 141.575 17.7949 136.032 14.6827 130.008C14.5885 130.262 14.5111 130.53 14.4434 130.8C12.5509 138.365 21.382 147.093 34.163 150.29C46.9441 153.488 58.8448 149.947 60.7374 142.383C60.8051 142.112 60.851 141.847 60.8994 141.571C55.3194 145.411 45.7619 146.602 35.7148 144.088Z" stroke="black" stroke-miterlimit="10"/>
<path d="M43.5401 113.279C61.9207 117.877 79.1164 112.432 81.9477 101.115C84.779 89.7987 72.1738 76.8969 53.7932 72.2981C35.4126 67.6994 18.217 73.1453 15.3857 84.4617C12.5543 95.7782 25.1595 108.68 43.5401 113.279Z" stroke="black" stroke-miterlimit="10"/>
<path d="M81.9478 101.115C79.1175 112.428 61.9148 117.876 43.5402 113.279C25.1656 108.682 12.553 95.7844 15.3858 84.4621C15.3858 84.4621 13.3975 87.1571 13.2831 92.1277C13.1201 98.5644 17.0488 103.787 21.6104 108.326C26.1721 112.865 34.504 116.777 42.0587 118.667C47.0339 119.912 52.6156 120.415 57.6828 120.554C69.3365 120.873 79.6801 112.846 81.897 101.4C81.9212 101.304 81.9357 101.205 81.9502 101.106L81.9478 101.115Z" stroke="black" stroke-miterlimit="10"/>
<path d="M57.6801 120.563C52.6129 120.425 47.0313 119.921 42.056 118.677C34.5014 116.786 26.1477 112.838 21.6078 108.335C19.2895 106.031 17.1476 103.555 15.612 100.83L13.502 122.147C11.3701 130.668 21.3144 140.485 35.6992 144.084C50.0839 147.683 63.4822 143.695 65.6116 135.184L75.6511 113.316C71.083 117.993 64.6119 120.758 57.6777 120.573L57.6801 120.563Z" stroke="black" stroke-miterlimit="10"/>
<path d="M51.2828 41.8185C51.2828 41.8185 37.0332 38.5408 42.7504 24.3062C42.7504 24.3062 55.9588 28.3397 51.2828 41.8185Z" stroke="black" stroke-miterlimit="10"/>
<path d="M59.2864 31.8617C59.2864 31.8617 59.2754 12.2931 78.0472 11.3642C78.0472 11.3642 81.7605 31.931 59.2864 31.8617Z" stroke="black" stroke-miterlimit="10"/>
<path d="M56.0519 50.0023C56.0519 50.0023 57.5071 43.7349 63.8761 43.9221C63.8761 43.9221 63.5778 50.5302 56.0519 50.0023Z" stroke="black" stroke-miterlimit="10"/>
<path d="M71.4973 51.9882C71.4973 51.9882 73.2158 45.6532 82.8984 46.7105C82.8984 46.7105 80.1458 55.5378 71.4973 51.9882Z" stroke="black" stroke-miterlimit="10"/>
<path d="M71.9479 56.2172C71.8847 58.5624 73.5817 63.3088 86.8918 66.3617C86.8918 66.3617 81.279 51.5405 73.4192 54.2756C72.5762 54.5677 71.9746 55.3308 71.9479 56.2172Z" stroke="black" stroke-miterlimit="10"/>
<path d="M40.6128 20.3118L36.8823 14.256" stroke="black" stroke-miterlimit="10"/>
<path d="M31.2656 21.7714L37.8156 23.4101" stroke="black" stroke-miterlimit="10"/>
<path d="M44.8237 18.481L46.3271 12.472" stroke="black" stroke-miterlimit="10"/>
<path d="M42.751 24.3063C42.751 24.3063 51.5825 30.8171 51.2834 41.8186" stroke="black" stroke-miterlimit="10"/>
<path d="M59.2873 31.8618C59.2873 31.8618 64.3331 17.1102 78.0481 11.3644" stroke="black" stroke-miterlimit="10"/>
<path d="M72.4845 54.8938C72.4845 54.8938 77.924 53.1341 86.8943 66.3521" stroke="black" stroke-miterlimit="10"/>
<path d="M50.863 92.2809C47.6824 90.0172 43.2386 88.7411 42.265 90.0476C41.6465 90.8783 42.8008 92.2963 42.0398 93.0401C41.3175 93.7524 39.9748 92.7595 38.6776 93.595C38.0665 93.9861 37.5688 94.7034 37.5277 95.4014C37.4283 97.1524 40.266 98.5297 41.7102 99.24C43.8234 100.272 49.0109 102.801 52.4169 100.348C52.7551 100.104 54.4122 98.8559 54.4705 97.0227C54.541 94.8949 52.423 93.3898 50.863 92.2809Z" fill="#C14021"/>
<path d="M46.382 97.1852C46.382 97.1852 51.9569 81.9192 51.2142 74.8761C50.4716 67.8331 50.0162 61.9397 51.4328 54.9236C52.8495 47.9075 58.5428 31.8396 59.2964 31.8639C60.0499 31.8882 51.4349 56.5974 53.4818 63.474C53.4818 63.474 66.2259 57.7111 71.5043 51.9999C71.5043 51.9999 71.4653 54.1664 69.5907 55.9558C67.7161 57.7452 58.2807 65.0134 53.933 66.3483C53.933 66.3483 56.4184 78.9807 50.836 96.0412C50.836 96.0412 50.6302 98.9564 46.382 97.1852Z" fill="#FF774A"/>
<path d="M46.382 97.1852C46.382 97.1852 51.9569 81.9192 51.2142 74.8761C50.4716 67.8331 50.0162 61.9397 51.4328 54.9236C52.8495 47.9075 58.5428 31.8396 59.2964 31.8639C60.0499 31.8882 51.4349 56.5974 53.4818 63.474C53.4818 63.474 66.2259 57.7111 71.5043 51.9999C71.5043 51.9999 71.4653 54.1664 69.5907 55.9558C67.7161 57.7452 58.2807 65.0134 53.933 66.3483C53.933 66.3483 56.4184 78.9807 50.836 96.0412C50.836 96.0412 50.6302 98.9564 46.382 97.1852Z" stroke="black" stroke-miterlimit="10"/>
<path d="M59.0866 94.9847C59.9936 95.2117 60.8252 95.0107 60.944 94.5358C61.0628 94.061 60.4239 93.4921 59.5168 93.2651C58.6098 93.0382 57.7782 93.2392 57.6594 93.714C57.5406 94.1889 58.1796 94.7578 59.0866 94.9847Z" fill="#C14021"/>
<path d="M24.4543 92.7153C25.3613 92.9423 26.1929 92.7413 26.3117 92.2664C26.4305 91.7916 25.7915 91.2227 24.8845 90.9957C23.9775 90.7688 23.1459 90.9698 23.0271 91.4447C22.9083 91.9195 23.5472 92.4884 24.4543 92.7153Z" fill="#C14021"/>
<path d="M62.6617 108.475C63.7715 108.753 64.7891 108.506 64.9346 107.925C65.0801 107.343 64.2984 106.647 63.1886 106.369C62.0788 106.091 61.0612 106.338 60.9157 106.919C60.7702 107.501 61.5519 108.197 62.6617 108.475Z" fill="#C14021"/>
<path d="M38.1259 89.7305C38.5367 89.8333 38.9174 89.7263 38.9761 89.4915C39.0349 89.2568 38.7494 88.9831 38.3386 88.8803C37.9278 88.7775 37.5471 88.8845 37.4884 89.1193C37.4296 89.354 37.7151 89.6277 38.1259 89.7305Z" fill="#C14021"/>
<path d="M57.5302 85.0798C57.941 85.1826 58.3217 85.0756 58.3804 84.8409C58.4392 84.6061 58.1537 84.3325 57.7429 84.2297C57.3321 84.1269 56.9514 84.2339 56.8927 84.4687C56.8339 84.7034 57.1194 84.9771 57.5302 85.0798Z" fill="#C14021"/>
</svg>
