<svg width="134" height="132" viewBox="0 0 134 132" fill="none" xmlns="http://www.w3.org/2000/svg">
<path d="M42.0535 51.9726C39.2421 51.2278 36.6852 49.9928 34.8109 47.7089C33.7372 46.3994 32.887 44.9099 31.9126 43.5135C30.4169 41.3599 28.7598 39.3057 27.4255 37.0653C25.2595 33.416 22.3302 30.195 20.9897 26.0803C19.7422 22.2386 19.4195 18.4714 22.4915 15.2008C24.0183 14.456 25.5016 15.4863 27.0593 15.4118C26.0788 14.6422 25.8926 13.3948 25.0237 12.6562C24.3534 10.813 23.5839 9.00696 22.2061 7.56711C20.9338 6.23278 21.089 3.2538 22.6405 2.27322C24.5086 1.08783 26.7552 0.287235 28.8343 1.93188C30.0321 2.87523 30.3176 3.93028 30.1625 5.28323C29.9514 7.18233 30.0259 9.11247 29.4612 10.9743C29.306 11.4832 29.5046 11.8432 30.0631 11.9611C34.6061 12.8921 37.0762 16.3303 39.6517 19.7375C42.488 23.4861 44.6167 27.7001 47.6019 31.3307C48.2536 32.1189 48.2287 33.4284 49.4762 33.7635C50.0782 35.1041 50.0347 36.4136 49.4265 37.7604C49.2403 38.1762 49.3396 38.7409 49.3893 39.225C49.4265 39.5788 49.3521 40.1125 49.9851 40.0504C50.4878 40.0008 50.5561 39.647 50.6119 39.2002C50.7609 38.0272 50.9532 36.8667 51.7414 35.8923C53.5412 33.6705 56.1727 32.7768 58.6614 31.8148C63.0678 30.1205 67.3997 28.2276 71.9613 26.9243C74.8658 26.0989 77.7393 25.2052 80.8051 25.3293C82.9277 25.6893 84.802 26.5147 86.5273 27.8552C89.618 30.2632 89.9717 33.8815 88.1657 36.9163C86.3225 40.0194 83.4924 41.6702 80.1163 42.8184C76.5229 44.0348 72.8364 44.8106 69.1809 45.6919C65.5192 46.5732 61.8576 47.6034 58.0097 47.5724C55.7196 47.5538 54.5156 47.1814 51.4808 44.7982C51.0836 45.9525 50.8415 46.809 52.5234 47.2434C56.0672 48.1619 58.3821 51.4388 58.4318 55.2805C58.4318 55.7335 58.4318 56.1618 58.5931 56.5838C57.9601 57.5644 57.9166 58.6442 57.9353 60.1958C59.3813 58.396 60.337 56.6707 62.0996 55.7522C63.7815 54.7095 65.5813 54.1385 67.5859 53.9151C68.6286 53.7972 69.7395 53.5552 70.7883 53.1145C73.0101 52.1836 75.4305 51.9043 77.8075 51.6499C78.6578 51.563 79.2164 51.0168 80.0108 50.9299C83.5918 50.5575 86.9741 49.1736 90.5675 48.8384C94.1485 48.5095 97.6799 48.5778 101.149 49.7631C102.142 50.1045 103.129 50.2783 103.942 51.0355C104.923 51.9478 105.704 52.3512 106.331 50.4893C107.653 46.5918 110.713 43.6997 112.73 40.1994C113.853 38.2506 114.952 36.2833 116.323 34.5021C118.198 32.0693 120.717 30.3749 123.771 30.4556C126.843 30.5363 128.562 29.0034 130.138 26.8126C130.653 26.0989 130.976 25.23 131.833 24.7645C132.391 24.4604 132.999 23.9453 133.502 24.479C133.937 24.9383 133.601 25.5962 133.217 26.1175C132.497 27.0857 131.845 28.1035 131.106 29.0592C129.735 30.8466 129.499 32.5037 130.747 34.62C132.124 36.9598 131.665 39.6098 130.554 42.0054C128.121 47.2496 124.621 51.8298 121.189 56.4348C119.768 58.3463 118.117 60.1089 115.665 60.773C115.597 60.1958 115.945 59.0352 114.703 60.0779C114.499 60.2454 114.344 60.4565 114.213 60.0096C113.928 59.0166 112.953 59.029 112.246 58.9297C111.631 58.8428 111.433 58.6442 111.259 58.1478C110.601 56.2859 109.428 54.8212 107.523 53.6545C108.485 56.1556 109.608 58.4208 109.652 60.9716C109.403 63.2555 108.386 65.1918 106.952 66.9296C106.356 67.6495 106.48 68.0715 107.144 68.7976C108.584 70.3802 109.453 72.18 109.72 74.4887C110.334 79.8509 109.515 85.1386 109.403 90.4635C109.329 93.9576 109.192 97.4579 108.845 100.933C108.286 106.451 107.653 111.974 106.803 117.454C106.313 120.601 105.332 123.642 103.452 126.354C100.007 131.325 92.9135 132.343 88.2898 129.234C85.4846 127.341 84.231 124.765 83.4428 121.805C82.8346 119.521 82.8532 117.156 82.8222 114.761C82.7663 110.187 83.449 105.712 84.1565 101.281C84.864 96.8311 85.2923 92.3129 86.4528 87.9314C86.8686 86.3736 87.1665 84.7538 87.2472 83.1464C87.2844 82.4451 87.9051 82.0355 87.7561 81.3652C88.023 80.124 88.2216 78.8579 88.5691 77.6415C89.2394 75.2707 89.8538 72.8813 91.3557 70.8333C92.4604 69.3251 93.8072 68.1211 95.4332 67.2212C95.7311 67.0537 96.1655 66.8675 95.9793 66.4703C95.7869 66.0669 95.3649 66.3027 95.036 66.4144C94.8064 66.4951 94.5333 66.5448 94.3533 66.6937C91.7281 68.9155 88.836 70.8829 87.4334 74.2405C87.1851 74.8425 86.85 75.5003 86.0122 75.6679C83.7841 76.1147 81.5313 76.4437 79.3777 77.2629C77.7269 77.8897 75.9581 78.1938 74.2452 78.6593C71.1793 79.4971 68.1135 80.2853 64.9235 80.5336C61.5597 80.8004 58.2828 80.7384 55.3721 78.6965C54.2798 78.38 53.3302 77.9083 53.082 76.6485C53.1316 76.1892 53.3116 75.792 53.5847 75.4196C55.2604 73.1606 55.7258 70.7215 54.6956 68.0529C53.7274 65.5456 52.0083 63.8016 49.5072 62.8583C49.7493 63.2369 50.0782 63.5223 50.4381 63.7706C52.7841 65.4028 54.0502 67.5254 53.4295 70.4609C53.1006 72.0187 52.4551 73.4647 51.5056 74.7556C47.5709 78.2187 43.0155 80.6266 38.2616 82.7305C34.724 84.3007 31.2547 86.0261 27.5248 87.0935C14.678 91.2269 9.74399 83.1153 9.03648 82.1906C7.59043 80.3101 7.15601 78.2373 7.57804 76.0775C7.95041 74.1846 8.38483 72.2048 9.84949 70.7215C10.2281 70.5664 10.4949 70.2871 10.7866 70.0078C13.0643 67.8418 15.7516 66.2406 18.7306 65.4338C21.902 64.5712 25.154 63.9443 28.4495 63.5658C32.0243 63.1499 35.5619 62.399 39.1242 61.8529C39.8442 61.7412 40.1234 61.2447 40.111 60.7606C40.0489 58.756 40.7937 56.8941 41.0606 54.9577C41.135 54.8584 41.2157 54.7529 41.2902 54.6536C42.3266 54.9515 43.1334 54.2875 43.9526 53.9089C46.5282 52.7235 49.0045 51.3582 50.4381 48.6523C49.9665 48.5343 49.6251 48.5778 49.3831 48.8757C47.6764 50.961 45.3615 51.5816 42.7983 51.6064C42.488 51.6064 42.2025 51.6809 42.0411 51.985L42.0535 51.9726ZM25.4706 5.58114C24.912 5.45081 24.9679 4.60055 24.3038 4.58814C24.2107 5.3515 23.9562 5.56251 23.4659 5.27702C22.7212 4.84259 22.715 3.78133 23.5342 3.40275C24.068 3.1545 24.3472 2.81936 24.6327 2.27322C22.7584 2.98693 22.1254 3.77512 22.5971 4.71846C23.0874 5.71766 24.4527 6.10867 25.4643 5.5439C27.0966 5.66803 27.1959 5.54389 26.7118 4.06061C25.8243 4.17853 26.116 5.25841 25.4706 5.58114ZM104.767 68.9031C104.289 68.4687 103.427 68.0901 102.546 67.7426C102.248 67.6246 101.962 67.2274 101.664 67.7177C101.416 68.1273 101.553 68.4625 101.912 68.7604C102.67 69.3934 103.439 70.014 104.153 70.6905C105.022 71.5097 105.915 72.4531 105.853 73.6757C105.754 75.5314 105.419 77.418 104.687 79.1372C103.371 82.2341 103.619 85.4427 103.712 88.6575C103.737 89.5326 104.029 90.4697 104.985 90.6187C105.953 90.7676 106.921 90.4821 107.455 89.4395C108.392 87.6086 108.702 85.6785 108.51 83.6491C108.466 83.165 108.386 82.6561 108.479 82.1906C108.944 79.8385 108.907 77.5112 108.429 75.159C107.939 72.7572 107.182 70.5416 104.767 68.9093V68.9031ZM79.4894 29.3199C80.0914 28.8544 79.8742 28.3269 79.5887 27.8552C78.7881 26.5395 77.5096 26.7195 76.3491 27.0484C73.4073 27.8925 70.4966 28.8234 67.5921 29.7916C65.9599 30.3315 64.3649 30.9956 62.7699 31.6348C61.8762 31.9948 61.4169 32.8388 61.4914 33.6581C61.5721 34.5145 62.5154 34.5703 63.2602 34.6386C64.6441 34.7689 66.0095 34.6945 67.3004 34.0987C67.9583 33.7946 68.5789 33.2608 69.2554 33.1802C71.7565 32.8761 73.9349 31.5417 76.4173 31.1569C77.6089 30.9707 78.6392 30.1888 79.4956 29.3137L79.4894 29.3199ZM79.1295 56.7265C79.5887 56.4038 79.5391 55.8018 79.2598 55.3301C78.7199 54.4364 78.0744 53.6731 76.8332 53.6917C73.097 53.7538 69.696 55.2433 66.1585 56.1432C65.2276 56.379 64.3711 57.2479 64.5449 58.5201C64.7124 59.7428 65.7365 60.1461 66.655 60.2392C67.1701 60.2951 67.7907 60.3758 68.4175 60.2392C71.0676 59.631 73.6928 58.9235 76.3801 58.4333C77.3172 58.2657 78.4592 57.8685 79.1357 56.7328L79.1295 56.7265ZM39.0746 77.8897C40.26 78.5476 44.6105 78.3676 46.1745 76.5616C46.4351 76.2575 46.7392 76.0713 47.093 75.8665C48.4211 75.1031 49.7555 74.3025 50.9408 73.3468C51.5304 72.8751 51.3691 71.9256 51.0774 71.2801C50.8105 70.6843 50.1899 70.8829 49.6437 71.0877C46.0565 72.4221 42.6059 74.0791 39.1428 75.6927C38.1685 76.1458 38.1747 77.2877 39.0746 77.8897ZM41.6563 42.9301C43.4872 44.2086 45.4421 43.9169 46.6337 42.1854C48.3963 39.6346 48.1232 37.8782 45.6966 36.184C43.8596 34.8993 41.886 35.3213 40.4958 37.3011C39.1676 39.194 39.6455 41.5275 41.6563 42.9301ZM118.837 39.8767C119.594 38.7471 120.395 37.8162 120.512 36.4695C120.593 35.5509 119.886 35.4144 119.451 35.0172C119.042 34.6324 118.595 34.6386 118.123 35.0731C116.603 36.4695 115.485 38.1265 114.703 40.0318C114.344 40.9069 114.871 41.5896 115.368 41.993C115.895 42.4212 116.665 42.2785 117.341 41.7572C118.049 41.211 118.328 40.3918 118.843 39.8891L118.837 39.8767ZM85.6212 52.2643C84.6964 51.6685 82.4684 51.9788 81.916 52.8973C81.6864 53.2759 81.4382 53.7972 81.6802 54.4054C81.9161 54.9888 82.3629 54.9516 82.7601 54.9702C83.9393 55.0384 84.9075 54.6226 85.7391 53.7227C86.3349 53.0773 86.3163 52.6987 85.615 52.2643H85.6212Z" fill="#FFBDFF"/>
<path d="M55.3902 78.6904C58.3009 80.7322 61.584 80.7942 64.9416 80.5274C68.1253 80.2729 71.1974 79.491 74.2633 78.6531C75.9762 78.1815 77.745 77.8836 79.3958 77.2567C81.5556 76.4375 83.8022 76.1086 86.0303 75.6617C86.8619 75.4942 87.197 74.8363 87.4515 74.2343C88.8541 70.8705 91.7462 68.9031 94.3714 66.6875C94.5514 66.5386 94.8183 66.4889 95.0541 66.4082C95.3768 66.2965 95.7988 66.0607 95.9974 66.4641C96.1898 66.8613 95.7554 67.0475 95.4513 67.215C93.8253 68.1212 92.4847 69.319 91.3738 70.8271C89.8719 72.8751 89.2575 75.2645 88.5872 77.6353C88.2397 78.8579 88.0411 80.1178 87.7742 81.359C86.5267 81.8307 85.7696 82.9354 84.969 83.8477C82.5051 86.6405 79.7185 89.0609 77.0064 91.5869C74.2074 94.1935 71.2347 96.3967 67.6226 97.5945C63.9858 98.7985 60.1566 99.4998 56.5197 97.9669C51.1079 95.683 48.2096 91.0469 51.2382 84.5801C52.2871 82.3396 53.8014 80.5026 55.3902 78.6842V78.6904Z" fill="#010101"/>
<path d="M41.0725 54.9393C40.8056 56.8818 40.0609 58.7375 40.123 60.7421C40.1354 61.2262 39.8623 61.7227 39.1362 61.8344C35.5738 62.3805 32.0363 63.1315 28.4615 63.5473C25.166 63.9321 21.9139 64.5589 18.7425 65.4154C15.7636 66.2222 13.0763 67.8234 10.7986 69.9893C10.5069 70.2686 10.24 70.5479 9.86146 70.703C7.57757 69.8776 5.50469 68.7791 3.80419 66.9483C0.514896 63.3983 0.639037 60.0532 2.15335 55.864C3.70491 51.5693 7.42241 51.0107 11.1337 50.7687C15.3726 50.4894 19.5059 51.5569 23.6145 52.4506C27.0217 53.1891 30.4599 53.667 33.9292 53.9959C35.9524 54.1883 37.9632 54.4428 40.005 54.4304C40.3588 54.4304 40.7125 54.7593 41.0725 54.9331V54.9393Z" fill="#010101"/>
<path d="M80.8045 25.3231C77.7386 25.199 74.8652 26.0927 71.9606 26.9181C67.3991 28.2152 63.0671 30.1081 58.6607 31.8086C56.172 32.7644 53.5406 33.6581 51.7408 35.8861C50.9526 36.8605 50.7602 38.021 50.6113 39.194C50.5554 39.6471 50.4872 39.9946 49.9845 40.0443C49.3514 40.1063 49.4197 39.5726 49.3887 39.2188C49.339 38.7285 49.2397 38.1638 49.4259 37.7542C50.0341 36.4074 50.0775 35.0979 49.4755 33.7574C50.1768 31.4921 52.1566 30.2757 53.7827 28.8979C58.0153 25.3107 62.4093 21.9035 66.8281 18.5335C69.4471 16.5413 72.4882 15.6414 75.6658 16.8889C78.924 18.1674 82.1388 21.618 80.8169 25.3231H80.8045Z" fill="#010101"/>
<path d="M109.67 60.9717C109.626 58.4209 108.503 56.1556 107.541 53.6545C109.446 54.8213 110.619 56.286 111.277 58.1478C111.451 58.6381 111.65 58.8429 112.264 58.9298C112.965 59.0291 113.946 59.0167 114.231 60.0097C114.362 60.4565 114.517 60.2517 114.722 60.078C115.963 59.0353 115.615 60.1959 115.684 60.773C113.704 61.5302 111.712 62.064 109.67 60.9655V60.9717Z" fill="#010101"/>
<path d="M51.5179 74.7429C52.4675 73.4458 53.1067 72.006 53.4419 70.4482C54.0625 67.5189 52.7964 65.3901 50.4505 63.7579C50.0967 63.5097 49.7616 63.2242 49.5195 62.8456C52.0144 63.7951 53.7397 65.5329 54.7079 68.0402C55.7381 70.7088 55.2727 73.1541 53.597 75.4069C53.3239 75.7793 53.144 76.1765 53.0943 76.6358C52.1944 76.3193 51.9648 75.438 51.5179 74.7429Z" fill="#010101"/>
<path d="M42.0527 51.9728C42.2141 51.6687 42.4996 51.5942 42.8099 51.5942C45.3731 51.5694 47.688 50.9488 49.3947 48.8635C49.6367 48.5656 49.9781 48.5221 50.4497 48.64C49.0161 51.3459 46.5336 52.7113 43.9642 53.8967C43.1512 54.2691 42.3382 54.9394 41.3018 54.6415C40.9294 53.5802 42.09 52.9471 42.0527 51.979V51.9728Z" fill="#010101"/>
<path d="M25.0165 12.6438C25.8854 13.3823 26.0716 14.6298 27.0521 15.3993C25.4944 15.4738 24.0173 14.4436 22.4844 15.1883C22.7326 13.7547 24.0608 13.3823 25.0103 12.6438H25.0165Z" fill="#010101"/>
<path d="M62.0995 55.7461C60.3369 56.6647 59.3812 58.39 57.9352 60.1898C57.9165 58.6383 57.9662 57.5584 58.593 56.5778C59.4309 56.2551 60.3121 56.0068 61.0941 55.5848C61.5596 55.3365 61.7892 55.5103 62.0933 55.7399L62.0995 55.7461Z" fill="#010101"/>
<path d="M104.761 68.897C107.175 70.5293 107.932 72.7449 108.423 75.1467C108.907 77.4989 108.938 79.8262 108.472 82.1784C108.379 82.6438 108.46 83.1527 108.503 83.6368C108.696 85.6662 108.385 87.5964 107.448 89.4272C106.915 90.4699 105.946 90.7491 104.978 90.6064C104.016 90.4636 103.731 89.5203 103.706 88.6452C103.613 85.4366 103.365 82.2218 104.68 79.1249C105.413 77.4058 105.742 75.5253 105.847 73.6634C105.915 72.447 105.015 71.4974 104.147 70.6782C103.427 70.0017 102.663 69.3749 101.906 68.7481C101.546 68.4502 101.41 68.1213 101.658 67.7055C101.956 67.2152 102.241 67.6124 102.539 67.7303C103.42 68.0778 104.283 68.4564 104.761 68.8908V68.897Z" fill="white"/>
<path d="M79.4824 29.3206C78.6259 30.1894 77.5957 30.9776 76.4041 31.1638C73.9278 31.5486 71.7432 32.8829 69.2421 33.187C68.5656 33.2677 67.945 33.8015 67.2872 34.1056C65.9963 34.7014 64.6371 34.7696 63.2469 34.6455C62.5084 34.5772 61.5588 34.5214 61.4781 33.6649C61.4037 32.8457 61.8567 31.9954 62.7566 31.6417C64.3578 31.0024 65.9466 30.3446 67.5788 29.7984C70.4834 28.8303 73.3941 27.8994 76.3358 27.0553C77.4964 26.7202 78.7687 26.5464 79.5755 27.8621C79.8672 28.3338 80.0844 28.8551 79.4761 29.3268L79.4824 29.3206Z" fill="white"/>
<path d="M79.1226 56.7201C78.4462 57.8558 77.3043 58.253 76.3671 58.4206C73.686 58.9109 71.0546 59.6184 68.4045 60.2266C67.7777 60.3694 67.1571 60.2887 66.642 60.2266C65.7234 60.1273 64.6994 59.7301 64.5319 58.5075C64.3581 57.2352 65.2145 56.3663 66.1455 56.1305C69.6768 55.2306 73.084 53.7411 76.8202 53.679C78.0614 53.6604 78.7068 54.4238 79.2468 55.3175C79.5323 55.7892 79.5819 56.3912 79.1165 56.7139L79.1226 56.7201Z" fill="white"/>
<path d="M39.0678 77.8833C38.1679 77.2813 38.1617 76.1394 39.1361 75.6864C42.5992 74.0727 46.0499 72.4157 49.637 71.0814C50.1894 70.8765 50.8038 70.6779 51.0707 71.2737C51.3624 71.9192 51.5237 72.8687 50.9341 73.3404C49.7425 74.3023 48.4144 75.0968 47.0863 75.8601C46.7325 76.065 46.4346 76.2511 46.1678 76.5552C44.5976 78.355 40.2532 78.5412 39.0678 77.8833Z" fill="white"/>
<path d="M41.6504 42.9243C39.6396 41.5217 39.1617 39.1943 40.4899 37.2952C41.88 35.3154 43.8536 34.8934 45.6907 36.1781C48.1111 37.8724 48.3842 39.6288 46.6278 42.1795C45.4362 43.911 43.4813 44.2027 41.6504 42.9243ZM45.2252 40.5721C45.3928 39.8149 45.5231 38.9709 44.5239 38.3006C43.6985 37.7483 43.0344 37.7793 42.5007 38.6295C41.8925 39.6039 41.9794 40.5535 42.9227 41.2237C43.7233 41.7947 44.4867 41.5092 45.219 40.5721H45.2252Z" fill="white"/>
<path d="M118.824 39.8699C118.315 40.3727 118.029 41.1919 117.322 41.738C116.652 42.2593 115.876 42.4021 115.348 41.9739C114.852 41.5705 114.324 40.8878 114.684 40.0127C115.466 38.1074 116.583 36.4566 118.104 35.054C118.569 34.6257 119.016 34.6195 119.432 34.9981C119.866 35.4015 120.574 35.5318 120.493 36.4504C120.381 37.7971 119.575 38.7342 118.817 39.8576L118.824 39.8699Z" fill="white"/>
<path d="M85.6077 52.2584C86.3152 52.6866 86.3338 53.0714 85.738 53.7106C84.9002 54.6105 83.9382 55.0263 82.759 54.958C82.3618 54.9332 81.915 54.9767 81.6792 54.3933C81.4309 53.7851 81.6853 53.27 81.915 52.8852C82.4673 51.9667 84.6892 51.6563 85.6139 52.2521L85.6077 52.2584Z" fill="white"/>
<path d="M25.4573 5.54437C24.4457 6.11534 23.0803 5.71813 22.59 4.71893C22.1245 3.76938 22.7576 2.98119 24.6256 2.27368C24.3401 2.81983 24.0609 3.15497 23.5272 3.40322C22.7079 3.7818 22.7142 4.84305 23.4589 5.27749C23.9492 5.56297 24.2036 5.35197 24.2967 4.58861C24.9608 4.60102 24.9049 5.45127 25.4635 5.5816V5.54437H25.4573Z" fill="#010101"/>
<path d="M25.4637 5.58156C26.1092 5.25884 25.8175 4.18516 26.705 4.06104C27.1891 5.55053 27.0898 5.66845 25.4575 5.54433L25.4637 5.58156Z" fill="#010101"/>
<path d="M45.2245 40.5721C44.4922 41.5093 43.7288 41.7947 42.9282 41.2238C41.9849 40.5535 41.898 39.5977 42.5062 38.6296C43.0399 37.7793 43.704 37.7483 44.5294 38.3007C45.5286 38.9709 45.3983 39.815 45.2307 40.5721H45.2245Z" fill="#010101"/>
<path d="M42.0535 51.9726C39.2421 51.2278 36.6852 49.9928 34.8109 47.7089C33.7372 46.3994 32.887 44.9099 31.9126 43.5135C30.4169 41.3599 28.7598 39.3057 27.4255 37.0653C25.2595 33.416 22.3302 30.195 20.9897 26.0803C19.7422 22.2386 19.4195 18.4714 22.4915 15.2008C24.0183 14.456 25.5016 15.4863 27.0593 15.4118C26.0788 14.6422 25.8926 13.3948 25.0237 12.6562C24.3534 10.813 23.5839 9.00696 22.2061 7.56711C20.9338 6.23278 21.089 3.2538 22.6405 2.27322C24.5086 1.08783 26.7552 0.287235 28.8343 1.93188C30.0321 2.87523 30.3176 3.93028 30.1625 5.28323C29.9514 7.18233 30.0259 9.11247 29.4612 10.9743C29.306 11.4832 29.5046 11.8432 30.0631 11.9611C34.6061 12.8921 37.0762 16.3303 39.6517 19.7375C42.488 23.4861 44.6167 27.7001 47.6019 31.3307C48.2536 32.1189 48.2287 33.4284 49.4762 33.7636C50.0782 35.1041 50.0347 36.4136 49.4265 37.7604C49.2403 38.1762 49.3396 38.7409 49.3893 39.225C49.4265 39.5788 49.3521 40.1125 49.9851 40.0504C50.4878 40.0008 50.5561 39.647 50.6119 39.2002C50.7609 38.0272 50.9532 36.8667 51.7414 35.8923C53.5412 33.6705 56.1727 32.7768 58.6614 31.8148C63.0678 30.1205 67.3997 28.2276 71.9613 26.9243C74.8658 26.0989 77.7393 25.2052 80.8051 25.3293C82.9277 25.6893 84.802 26.5147 86.5273 27.8552C89.618 30.2632 89.9717 33.8815 88.1657 36.9163C86.3225 40.0194 83.4924 41.6702 80.1163 42.8184C76.5229 44.0348 72.8364 44.8106 69.1809 45.6919C65.5192 46.5732 61.8576 47.6034 58.0097 47.5724C55.7196 47.5538 54.5156 47.1814 51.4808 44.7982C51.0836 45.9525 50.8415 46.809 52.5234 47.2434C56.0672 48.1619 58.3821 51.4388 58.4317 55.2805C58.4317 55.7335 58.4318 56.1617 58.5931 56.5838C57.9601 57.5644 57.9166 58.6442 57.9353 60.1958C59.3813 58.396 60.337 56.6707 62.0996 55.7522C63.7815 54.7095 65.5813 54.1385 67.5859 53.9151C68.6286 53.7972 69.7395 53.5552 70.7883 53.1145C73.0101 52.1836 75.4305 51.9043 77.8075 51.6499C78.6578 51.563 79.2164 51.0168 80.0108 50.9299C83.5918 50.5575 86.9741 49.1736 90.5675 48.8384C94.1485 48.5095 97.6799 48.5778 101.149 49.7632C102.142 50.1045 103.129 50.2783 103.942 51.0355C104.923 51.9478 105.704 52.3512 106.331 50.4893C107.653 46.5918 110.713 43.6997 112.73 40.1994C113.853 38.2506 114.952 36.2833 116.323 34.5021C118.198 32.0693 120.717 30.3749 123.771 30.4556C126.843 30.5363 128.562 29.0034 130.138 26.8126C130.653 26.0989 130.976 25.23 131.833 24.7645C132.391 24.4604 132.999 23.9453 133.502 24.479C133.937 24.9383 133.601 25.5962 133.217 26.1175C132.497 27.0857 131.845 28.1035 131.106 29.0592C129.735 30.8466 129.499 32.5037 130.747 34.62C132.124 36.9598 131.665 39.6098 130.554 42.0054C128.121 47.2496 124.621 51.8298 121.189 56.4348C119.768 58.3463 118.117 60.1089 115.665 60.773C115.597 60.1958 115.945 59.0352 114.703 60.0779C114.499 60.2454 114.344 60.4565 114.213 60.0096C113.928 59.0166 112.953 59.029 112.246 58.9297C111.631 58.8429 111.433 58.6442 111.259 58.1477C110.601 56.2859 109.428 54.8212 107.523 53.6545C108.485 56.1556 109.608 58.4208 109.652 60.9716C109.403 63.2555 108.386 65.1918 106.952 66.9296C106.356 67.6495 106.48 68.0715 107.144 68.7976C108.584 70.3802 109.453 72.18 109.72 74.4887C110.334 79.8509 109.515 85.1386 109.403 90.4635C109.329 93.9576 109.192 97.4579 108.845 100.933C108.286 106.451 107.653 111.974 106.803 117.454C106.313 120.601 105.332 123.642 103.452 126.354C100.007 131.325 92.9135 132.343 88.2898 129.234C85.4846 127.341 84.231 124.765 83.4428 121.805C82.8346 119.521 82.8532 117.156 82.8222 114.761C82.7663 110.187 83.449 105.712 84.1565 101.281C84.864 96.8311 85.2923 92.3129 86.4528 87.9314C86.8686 86.3736 87.1665 84.7538 87.2472 83.1464C87.2844 82.4451 87.9051 82.0355 87.7561 81.3652C88.023 80.124 88.2216 78.8579 88.5691 77.6415C89.2394 75.2707 89.8538 72.8813 91.3557 70.8332C92.4604 69.3251 93.8072 68.1211 95.4332 67.2212C95.7311 67.0537 96.1655 66.8675 95.9793 66.4703C95.787 66.0669 95.3649 66.3027 95.036 66.4144C94.8064 66.4951 94.5333 66.5448 94.3533 66.6937C91.7281 68.9155 88.836 70.8829 87.4334 74.2405C87.1851 74.8425 86.85 75.5003 86.0122 75.6679C83.7841 76.1147 81.5313 76.4437 79.3777 77.2629C77.7269 77.8897 75.9581 78.1938 74.2452 78.6593C71.1793 79.4971 68.1135 80.2853 64.9235 80.5336C61.5597 80.8004 58.2828 80.7384 55.3721 78.6965C54.2798 78.38 53.3302 77.9083 53.082 76.6485C53.1316 76.1892 53.3116 75.792 53.5847 75.4196C55.2604 73.1606 55.7258 70.7215 54.6956 68.0529C53.7274 65.5456 52.0083 63.8016 49.5072 62.8583C49.7493 63.2369 50.0782 63.5223 50.4381 63.7706C52.7841 65.4028 54.0502 67.5254 53.4295 70.4609C53.1006 72.0187 52.4551 73.4647 51.5056 74.7556C47.5709 78.2186 43.0155 80.6266 38.2616 82.7305C34.724 84.3007 31.2547 86.0261 27.5248 87.0935C15.3482 91.351 9.74399 83.1153 9.03648 82.1906C7.59043 80.3101 7.15601 78.2373 7.57804 76.0775C7.95041 74.1846 8.38483 72.2048 9.84949 70.7215C10.2281 70.5664 10.4949 70.2871 10.7866 70.0078C13.0643 67.8418 15.7516 66.2406 18.7306 65.4338C21.902 64.5712 25.154 63.9443 28.4495 63.5658C32.0243 63.1499 35.5619 62.399 39.1242 61.8529C39.8442 61.7412 40.1234 61.2447 40.111 60.7606C40.0489 58.756 40.7937 56.8941 41.0606 54.9577C41.135 54.8584 41.2157 54.7529 41.2902 54.6536C42.3266 54.9515 43.1334 54.2875 43.9526 53.9089C46.5282 52.7235 49.0045 51.3582 50.4381 48.6523C49.9665 48.5343 49.6251 48.5778 49.3831 48.8757C47.6764 50.961 45.3615 51.5816 42.7983 51.6064C42.488 51.6064 42.2025 51.6809 42.0411 51.985L42.0535 51.9726ZM25.4706 5.58114C24.912 5.45081 24.9679 4.60055 24.3038 4.58814C24.2107 5.3515 23.9562 5.56251 23.4659 5.27702C22.7212 4.84259 22.715 3.78133 23.5342 3.40275C24.068 3.1545 24.3472 2.81936 24.6327 2.27322C22.7584 2.98693 22.1254 3.77512 22.5971 4.71846C23.0874 5.71766 24.4527 6.10867 25.4643 5.5439C27.0966 5.66803 27.1959 5.54389 26.7118 4.06061C25.8243 4.17853 26.116 5.25841 25.4706 5.58114ZM104.767 68.9031C104.289 68.4687 103.427 68.0901 102.546 67.7426C102.248 67.6246 101.962 67.2274 101.664 67.7177C101.416 68.1273 101.553 68.4625 101.912 68.7604C102.67 69.3934 103.439 70.014 104.153 70.6905C105.022 71.5097 105.915 72.4531 105.853 73.6757C105.754 75.5314 105.419 77.418 104.687 79.1372C103.371 82.2341 103.619 85.4427 103.712 88.6575C103.737 89.5326 104.029 90.4697 104.985 90.6187C105.953 90.7676 106.921 90.4821 107.455 89.4395C108.392 87.6086 108.702 85.6785 108.51 83.6491C108.466 83.165 108.386 82.6561 108.479 82.1906C108.944 79.8385 108.907 77.5112 108.429 75.159C107.939 72.7572 107.182 70.5416 104.767 68.9093V68.9031ZM79.4894 29.3199C80.0914 28.8544 79.8742 28.3269 79.5887 27.8552C78.7881 26.5395 77.5096 26.7195 76.3491 27.0484C73.4073 27.8925 70.4966 28.8234 67.5921 29.7916C65.9599 30.3315 64.3649 30.9956 62.7699 31.6348C61.8762 31.9948 61.4169 32.8388 61.4914 33.6581C61.5721 34.5145 62.5154 34.5703 63.2602 34.6386C64.6441 34.7689 66.0095 34.6945 67.3004 34.0987C67.9583 33.7946 68.5789 33.2608 69.2554 33.1802C71.7565 32.8761 73.9349 31.5417 76.4173 31.1569C77.6089 30.9707 78.6392 30.1888 79.4956 29.3137L79.4894 29.3199ZM79.1295 56.7265C79.5887 56.4038 79.5391 55.8018 79.2598 55.3301C78.7199 54.4364 78.0744 53.6731 76.8332 53.6917C73.097 53.7538 69.696 55.2433 66.1585 56.1432C65.2276 56.379 64.3711 57.2479 64.5449 58.5201C64.7124 59.7428 65.7365 60.1461 66.655 60.2392C67.1701 60.2951 67.7907 60.3758 68.4175 60.2392C71.0676 59.631 73.6928 58.9235 76.3801 58.4332C77.3172 58.2657 78.4592 57.8685 79.1357 56.7328L79.1295 56.7265ZM39.0746 77.8897C40.26 78.5476 44.6105 78.3676 46.1745 76.5616C46.4351 76.2575 46.7392 76.0713 47.093 75.8665C48.4211 75.1031 49.7555 74.3025 50.9408 73.3468C51.5304 72.8751 51.3691 71.9256 51.0774 71.2801C50.8105 70.6843 50.1899 70.8829 49.6437 71.0877C46.0565 72.4221 42.6059 74.0791 39.1428 75.6927C38.1685 76.1458 38.1747 77.2877 39.0746 77.8897ZM41.6563 42.9301C43.4872 44.2086 45.4421 43.9169 46.6337 42.1854C48.3963 39.6346 48.1232 37.8782 45.6966 36.184C43.8595 34.8993 41.886 35.3213 40.4958 37.3011C39.1676 39.194 39.6455 41.5275 41.6563 42.9301ZM118.837 39.8767C119.594 38.7471 120.395 37.8162 120.512 36.4695C120.593 35.5509 119.886 35.4144 119.451 35.0172C119.042 34.6324 118.595 34.6386 118.123 35.0731C116.603 36.4695 115.485 38.1265 114.703 40.0318C114.344 40.9069 114.871 41.5896 115.368 41.993C115.895 42.4212 116.665 42.2785 117.341 41.7572C118.049 41.211 118.328 40.3918 118.843 39.8891L118.837 39.8767ZM85.6212 52.2643C84.6964 51.6685 82.4684 51.9788 81.916 52.8973C81.6864 53.2759 81.4382 53.7972 81.6802 54.4054C81.9161 54.9888 82.3629 54.9516 82.7601 54.9702C83.9393 55.0384 84.9075 54.6226 85.7391 53.7227C86.3349 53.0773 86.3163 52.6987 85.615 52.2643H85.6212Z" stroke="black" stroke-width="0.5" stroke-miterlimit="10"/>
<path d="M55.3902 78.6904C58.3009 80.7322 61.584 80.7942 64.9416 80.5274C68.1253 80.2729 71.1974 79.491 74.2633 78.6531C75.9762 78.1815 77.745 77.8836 79.3958 77.2567C81.5556 76.4375 83.8022 76.1086 86.0303 75.6617C86.8619 75.4942 87.197 74.8363 87.4515 74.2343C88.8541 70.8705 91.7462 68.9031 94.3714 66.6875C94.5514 66.5386 94.8183 66.4889 95.0541 66.4082C95.3768 66.2965 95.7988 66.0607 95.9974 66.4641C96.1898 66.8613 95.7554 67.0475 95.4513 67.215C93.8253 68.1212 92.4847 69.319 91.3738 70.8271C89.8719 72.8751 89.2575 75.2645 88.5872 77.6353C88.2397 78.8579 88.0411 80.1178 87.7742 81.359C86.5267 81.8307 85.7696 82.9354 84.969 83.8477C82.5051 86.6405 79.7185 89.0609 77.0064 91.5869C74.2074 94.1935 71.2347 96.3967 67.6226 97.5945C63.9858 98.7985 60.1566 99.4998 56.5197 97.9669C51.1079 95.683 48.2096 91.0469 51.2382 84.5801C52.2871 82.3396 53.8014 80.5026 55.3902 78.6842V78.6904Z" stroke="black" stroke-width="0.5" stroke-miterlimit="10"/>
<path d="M41.0725 54.9393C40.8056 56.8818 40.0609 58.7375 40.123 60.7421C40.1354 61.2262 39.8623 61.7227 39.1362 61.8344C35.5738 62.3805 32.0363 63.1315 28.4615 63.5473C25.166 63.9321 21.9139 64.5589 18.7425 65.4154C15.7636 66.2222 13.0763 67.8234 10.7986 69.9894C10.5069 70.2686 10.24 70.5479 9.86146 70.703C7.57757 69.8776 5.50469 68.7791 3.80419 66.9483C0.514896 63.3983 0.639037 60.0532 2.15335 55.864C3.70491 51.5693 7.42241 51.0107 11.1337 50.7687C15.3726 50.4894 19.5059 51.5569 23.6144 52.4506C27.0217 53.1891 30.4599 53.667 33.9292 53.9959C35.9524 54.1883 37.9632 54.4428 40.005 54.4304C40.3588 54.4304 40.7125 54.7593 41.0725 54.9331V54.9393Z" stroke="black" stroke-width="0.5" stroke-miterlimit="10"/>
<path d="M80.8045 25.3231C77.7386 25.199 74.8652 26.0927 71.9606 26.9181C67.3991 28.2152 63.0671 30.1081 58.6607 31.8086C56.172 32.7644 53.5406 33.6581 51.7408 35.8861C50.9526 36.8605 50.7602 38.021 50.6113 39.194C50.5554 39.6471 50.4872 39.9946 49.9845 40.0443C49.3514 40.1063 49.4197 39.5726 49.3887 39.2188C49.339 38.7285 49.2397 38.1638 49.4259 37.7542C50.0341 36.4074 50.0775 35.0979 49.4755 33.7574C50.1768 31.4921 52.1566 30.2757 53.7827 28.8979C58.0153 25.3107 62.4093 21.9035 66.8281 18.5335C69.4471 16.5413 72.4882 15.6414 75.6658 16.8889C78.924 18.1674 82.1388 21.618 80.8169 25.3231H80.8045Z" stroke="black" stroke-width="0.5" stroke-miterlimit="10"/>
<path d="M109.67 60.9717C109.626 58.4209 108.503 56.1556 107.541 53.6545C109.446 54.8213 110.619 56.286 111.277 58.1478C111.451 58.6381 111.65 58.8429 112.264 58.9298C112.965 59.0291 113.946 59.0167 114.231 60.0097C114.362 60.4565 114.517 60.2517 114.722 60.078C115.963 59.0353 115.615 60.1959 115.684 60.773C113.704 61.5302 111.712 62.064 109.67 60.9655V60.9717Z" stroke="black" stroke-width="0.5" stroke-miterlimit="10"/>
<path d="M51.5179 74.7429C52.4675 73.4458 53.1067 72.006 53.4419 70.4482C54.0625 67.5189 52.7964 65.3901 50.4505 63.7579C50.0967 63.5097 49.7616 63.2242 49.5195 62.8456C52.0144 63.7951 53.7397 65.5329 54.7079 68.0402C55.7381 70.7088 55.2727 73.1541 53.597 75.4069C53.3239 75.7793 53.144 76.1765 53.0943 76.6358C52.1944 76.3193 51.9648 75.438 51.5179 74.7429Z" stroke="black" stroke-width="0.5" stroke-miterlimit="10"/>
<path d="M42.0527 51.9728C42.2141 51.6687 42.4996 51.5942 42.8099 51.5942C45.3731 51.5694 47.688 50.9488 49.3947 48.8635C49.6367 48.5656 49.9781 48.5221 50.4497 48.64C49.0161 51.3459 46.5336 52.7113 43.9642 53.8967C43.1512 54.2691 42.3382 54.9394 41.3018 54.6415C40.9294 53.5802 42.09 52.9471 42.0527 51.979V51.9728Z" stroke="black" stroke-width="0.5" stroke-miterlimit="10"/>
<path d="M25.0165 12.6438C25.8854 13.3823 26.0716 14.6298 27.0521 15.3993C25.4944 15.4738 24.0173 14.4436 22.4844 15.1883C22.7326 13.7547 24.0608 13.3823 25.0103 12.6438H25.0165Z" stroke="black" stroke-width="0.5" stroke-miterlimit="10"/>
<path d="M62.0995 55.7461C60.3369 56.6647 59.3812 58.39 57.9352 60.1898C57.9165 58.6383 57.9662 57.5584 58.593 56.5778C59.4309 56.2551 60.3121 56.0068 61.0941 55.5848C61.5596 55.3365 61.7892 55.5103 62.0933 55.7399L62.0995 55.7461Z" stroke="black" stroke-width="0.5" stroke-miterlimit="10"/>
<path d="M104.761 68.897C107.175 70.5293 107.932 72.7449 108.423 75.1467C108.907 77.4989 108.938 79.8262 108.472 82.1784C108.379 82.6438 108.46 83.1527 108.503 83.6368C108.696 85.6662 108.385 87.5964 107.448 89.4272C106.915 90.4699 105.946 90.7491 104.978 90.6064C104.016 90.4636 103.731 89.5203 103.706 88.6452C103.613 85.4366 103.365 82.2218 104.68 79.1249C105.413 77.4058 105.742 75.5253 105.847 73.6634C105.915 72.447 105.015 71.4974 104.147 70.6782C103.427 70.0017 102.663 69.3749 101.906 68.7481C101.546 68.4502 101.41 68.1213 101.658 67.7055C101.956 67.2152 102.241 67.6124 102.539 67.7303C103.42 68.0778 104.283 68.4564 104.761 68.8908V68.897Z" stroke="black" stroke-width="0.5" stroke-miterlimit="10"/>
<path d="M79.4824 29.3206C78.6259 30.1894 77.5957 30.9776 76.4041 31.1638C73.9278 31.5486 71.7432 32.8829 69.2421 33.187C68.5656 33.2677 67.945 33.8015 67.2872 34.1056C65.9963 34.7014 64.6371 34.7696 63.2469 34.6455C62.5084 34.5772 61.5588 34.5214 61.4781 33.6649C61.4037 32.8457 61.8567 31.9954 62.7566 31.6417C64.3578 31.0024 65.9466 30.3446 67.5788 29.7984C70.4834 28.8303 73.3941 27.8994 76.3358 27.0553C77.4964 26.7202 78.7687 26.5464 79.5755 27.8621C79.8672 28.3338 80.0844 28.8551 79.4761 29.3268L79.4824 29.3206Z" stroke="black" stroke-width="0.5" stroke-miterlimit="10"/>
<path d="M79.1226 56.7201C78.4462 57.8558 77.3043 58.253 76.3671 58.4206C73.686 58.9109 71.0546 59.6184 68.4045 60.2266C67.7777 60.3694 67.1571 60.2887 66.642 60.2266C65.7234 60.1273 64.6994 59.7301 64.5319 58.5075C64.3581 57.2352 65.2145 56.3663 66.1455 56.1305C69.6768 55.2306 73.084 53.7411 76.8202 53.679C78.0614 53.6604 78.7068 54.4238 79.2468 55.3175C79.5323 55.7892 79.5819 56.3912 79.1165 56.7139L79.1226 56.7201Z" stroke="black" stroke-width="0.5" stroke-miterlimit="10"/>
<path d="M39.0678 77.8833C38.1679 77.2813 38.1617 76.1394 39.1361 75.6864C42.5992 74.0727 46.0499 72.4157 49.637 71.0814C50.1894 70.8765 50.8038 70.6779 51.0707 71.2737C51.3624 71.9192 51.5237 72.8687 50.9341 73.3404C49.7425 74.3023 48.4144 75.0968 47.0863 75.8601C46.7325 76.065 46.4346 76.2511 46.1678 76.5552C44.5976 78.355 40.2532 78.5412 39.0678 77.8833Z" stroke="black" stroke-width="0.5" stroke-miterlimit="10"/>
<path d="M41.6504 42.9243C39.6396 41.5217 39.1617 39.1943 40.4899 37.2952C41.88 35.3154 43.8536 34.8934 45.6907 36.1781C48.1111 37.8724 48.3842 39.6288 46.6278 42.1795C45.4362 43.911 43.4813 44.2027 41.6504 42.9243ZM45.2252 40.5721C45.3928 39.8149 45.5231 38.9709 44.5239 38.3006C43.6985 37.7483 43.0344 37.7793 42.5007 38.6295C41.8925 39.6039 41.9794 40.5535 42.9227 41.2237C43.7233 41.7947 44.4867 41.5092 45.219 40.5721H45.2252Z" stroke="black" stroke-width="0.5" stroke-miterlimit="10"/>
<path d="M118.824 39.8699C118.315 40.3727 118.029 41.1919 117.322 41.738C116.652 42.2593 115.876 42.4021 115.348 41.9739C114.852 41.5705 114.324 40.8878 114.684 40.0127C115.466 38.1074 116.583 36.4566 118.104 35.054C118.569 34.6257 119.016 34.6195 119.432 34.9981C119.866 35.4015 120.574 35.5318 120.493 36.4504C120.381 37.7971 119.575 38.7342 118.817 39.8576L118.824 39.8699Z" stroke="black" stroke-width="0.5" stroke-miterlimit="10"/>
<path d="M85.6077 52.2584C86.3152 52.6866 86.3338 53.0714 85.738 53.7106C84.9002 54.6105 83.9382 55.0263 82.759 54.958C82.3618 54.9332 81.915 54.9767 81.6792 54.3933C81.4309 53.7851 81.6853 53.27 81.915 52.8852C82.4673 51.9667 84.6892 51.6563 85.6139 52.2521L85.6077 52.2584Z" stroke="black" stroke-width="0.5" stroke-miterlimit="10"/>
<path d="M25.4573 5.54437C24.4457 6.11534 23.0803 5.71813 22.59 4.71893C22.1245 3.76938 22.7576 2.98119 24.6256 2.27368C24.3401 2.81983 24.0609 3.15497 23.5272 3.40322C22.7079 3.7818 22.7142 4.84305 23.4589 5.27749C23.9492 5.56297 24.2036 5.35197 24.2967 4.58861C24.9608 4.60102 24.9049 5.45127 25.4635 5.5816V5.54437H25.4573Z" stroke="black" stroke-width="0.5" stroke-miterlimit="10"/>
<path d="M25.4637 5.58156C26.1092 5.25884 25.8175 4.18516 26.705 4.06104C27.1891 5.55053 27.0898 5.66845 25.4575 5.54433L25.4637 5.58156Z" stroke="black" stroke-width="0.5" stroke-miterlimit="10"/>
<path d="M45.2245 40.5721C44.4922 41.5093 43.7288 41.7947 42.9282 41.2238C41.9849 40.5535 41.898 39.5977 42.5062 38.6296C43.0399 37.7793 43.704 37.7483 44.5294 38.3007C45.5286 38.9709 45.3983 39.815 45.2307 40.5721H45.2245Z" stroke="black" stroke-width="0.5" stroke-miterlimit="10"/>
</svg>
