<svg width="173" height="148" viewBox="0 0 173 148" fill="none" xmlns="http://www.w3.org/2000/svg">
<path d="M110.102 96.3561C105.108 96.3561 100.397 97.3218 96.4166 99.1826C91.0226 101.703 87.6542 105.566 86.924 110.065C85.3458 119.722 96.1575 129.545 110.973 131.971C125.813 134.373 139.145 128.485 140.723 118.804C142.301 109.123 131.49 99.3239 116.674 96.8978C114.46 96.5445 112.245 96.3561 110.102 96.3561Z" fill="#CBE5F4"/>
<path d="M37.2459 111.846C32.2523 111.846 27.5414 112.812 23.5606 114.672C18.1666 117.193 14.7982 121.056 14.068 125.555C12.4899 135.212 23.3016 145.035 38.1175 147.461C45.4666 148.662 52.6743 147.838 58.3746 145.176C63.7686 142.656 67.137 138.793 67.8672 134.294C69.4453 124.636 58.6337 114.814 43.8177 112.388C41.6036 112.034 39.3894 111.846 37.2459 111.846Z" fill="#CBE5F4"/>
<path d="M102.164 73.0236C97.1708 73.0236 92.4598 73.9893 88.4791 75.8502C83.085 78.3705 79.7167 82.2335 78.9865 86.7325C77.4083 96.3899 88.22 106.212 103.036 108.638C117.875 111.041 131.207 105.152 132.786 95.4713C134.364 85.7902 123.552 75.9915 108.736 73.5653C106.522 73.212 104.308 73.0236 102.164 73.0236Z" fill="white"/>
<path d="M29.2885 88.4998C24.2949 88.4998 19.5839 89.4655 15.6031 91.3263C10.2091 93.8467 6.84072 97.7097 6.11052 102.209C4.53235 111.866 15.3441 121.688 30.16 124.115C37.5091 125.316 44.7168 124.492 50.4171 121.83C55.8111 119.309 59.1795 115.446 59.9097 110.948C61.4879 101.29 50.6762 91.4677 35.8602 89.0415C33.6461 88.6882 31.432 88.4998 29.2885 88.4998Z" fill="white"/>
<path d="M55.2678 95.4692C55.2678 95.4692 53.1478 86.0944 61.6275 85.6233C70.1073 85.1287 76.6791 91.936 76.6791 91.936" stroke="#4488E3" stroke-width="2.5" stroke-linecap="round" stroke-linejoin="round"/>
<path d="M129.823 81.5916L152.412 5.50964L171.28 2" stroke="#4488E3" stroke-width="2.5" stroke-linecap="round" stroke-linejoin="round"/>
<path d="M11.8159 90.9162L27.7625 35.3504L46.0646 31.299" stroke="#4488E3" stroke-width="2.5" stroke-linecap="round" stroke-linejoin="round"/>
<path d="M109.471 114.433C107.115 114.433 104.689 114.244 102.239 113.844C84.7147 110.994 72.0894 98.6277 74.0916 86.285C75.0809 80.1136 79.462 74.9551 86.3636 71.7281C92.9589 68.6425 101.18 67.7002 109.494 69.0429C127.019 71.893 139.645 84.2593 137.642 96.602C135.923 107.225 123.934 114.433 109.447 114.433H109.471ZM102.169 73.3769C97.1752 73.3769 92.4643 74.3427 88.4835 76.2035C83.0895 78.7239 79.7211 82.5869 78.9909 87.0858C77.4128 96.7433 88.2245 106.566 103.04 108.992C117.88 111.394 131.212 105.506 132.79 95.8246C134.368 86.1436 123.557 76.3449 108.741 73.9187C106.526 73.5654 104.312 73.3769 102.169 73.3769Z" fill="#4488E3"/>
<path d="M45.9438 109.105L49.3357 98.3404" stroke="#CBE5F4" stroke-width="0.5" stroke-miterlimit="10" stroke-linecap="round"/>
<path d="M29.3271 122.532L38.7726 96.2211" stroke="#CBE5F4" stroke-width="0.5" stroke-miterlimit="10" stroke-linecap="round"/>
<path d="M20.0469 110.234L22.9441 100.223" stroke="#CBE5F4" stroke-width="0.5" stroke-miterlimit="10" stroke-linecap="round"/>
<path d="M116.603 98.8157L119.971 88.0746" stroke="#CBE5F4" stroke-width="0.5" stroke-miterlimit="10" stroke-linecap="round"/>
<path d="M103.926 106.296L113.372 79.9619" stroke="#CBE5F4" stroke-width="0.5" stroke-miterlimit="10" stroke-linecap="round"/>
<path d="M94.6455 93.9785L97.5427 83.9913" stroke="#CBE5F4" stroke-width="0.5" stroke-miterlimit="10" stroke-linecap="round"/>
<path d="M36.7058 129.896C34.3032 129.896 31.83 129.707 29.3568 129.307C11.832 126.457 -0.793391 114.09 1.20876 101.748C2.19807 95.5764 6.57924 90.4179 13.4808 87.1909C20.0761 84.1052 28.2968 83.163 36.6116 84.5056C54.1364 87.3558 66.7617 99.722 64.7596 112.065C63.7703 118.236 59.389 123.395 52.4875 126.622C47.8472 128.789 42.4061 129.896 36.6823 129.896H36.7058ZM29.2861 88.8397C24.2925 88.8397 19.5815 89.8055 15.6007 91.6663C10.2067 94.1867 6.83833 98.0497 6.10813 102.549C4.52996 112.206 15.3417 122.028 30.1576 124.455C37.5067 125.656 44.7144 124.831 50.4147 122.17C55.8087 119.649 59.1771 115.786 59.9073 111.287C61.4855 101.63 50.6738 91.8076 35.8578 89.3815C33.6437 89.0282 31.4296 88.8397 29.2861 88.8397Z" fill="#4488E3"/>
<path d="M109.471 114.433C107.115 114.433 104.689 114.244 102.239 113.844C84.7147 110.994 72.0894 98.6277 74.0916 86.285C75.0809 80.1136 79.462 74.9551 86.3636 71.7281C92.9589 68.6425 101.18 67.7002 109.494 69.0429C127.019 71.893 139.645 84.2593 137.642 96.602C135.923 107.225 123.934 114.433 109.447 114.433H109.471ZM102.169 73.3769C97.1752 73.3769 92.4643 74.3427 88.4835 76.2035C83.0895 78.7239 79.7211 82.5869 78.9909 87.0858C77.4128 96.7433 88.2245 106.566 103.04 108.992C117.88 111.394 131.212 105.506 132.79 95.8246C134.368 86.1436 123.557 76.3449 108.741 73.9187C106.526 73.5654 104.312 73.3769 102.169 73.3769Z" stroke="black" stroke-width="0.5" stroke-miterlimit="10"/>
<path d="M36.7058 129.896C34.3032 129.896 31.83 129.707 29.3568 129.307C11.832 126.457 -0.793392 114.09 1.20876 101.748C2.19807 95.5764 6.57924 90.4179 13.4808 87.1909C20.0761 84.1052 28.2968 83.163 36.6116 84.5056C54.1364 87.3558 66.7617 99.722 64.7596 112.065C63.7703 118.236 59.389 123.395 52.4875 126.622C47.8472 128.789 42.4061 129.896 36.6823 129.896H36.7058ZM29.2861 88.8397C24.2925 88.8397 19.5815 89.8055 15.6007 91.6663C10.2067 94.1867 6.83833 98.0497 6.10813 102.549C4.52996 112.206 15.3417 122.028 30.1576 124.455C37.5067 125.656 44.7144 124.831 50.4147 122.17C55.8087 119.649 59.1771 115.786 59.9073 111.287C61.4855 101.63 50.6738 91.8076 35.8578 89.3815C33.6437 89.0282 31.4296 88.8397 29.2861 88.8397Z" stroke="black" stroke-width="0.5" stroke-miterlimit="10"/>
</svg>
