<svg width="224" height="173" viewBox="0 0 224 173" fill="none" xmlns="http://www.w3.org/2000/svg">
<path d="M71.4058 1L95.7514 85.2438L191.172 88.3948L167.109 3.3038L71.4058 1Z" fill="#FFE328"/>
<path d="M71.4058 1L95.7514 85.2438L191.172 88.3948L167.109 3.3038L71.4058 1Z" stroke="black" stroke-linecap="round" stroke-linejoin="round"/>
<path d="M110.079 67.765C110.079 67.765 120.111 59.7389 163.08 61.1807" stroke="black" stroke-linecap="round" stroke-linejoin="round"/>
<path d="M76.6963 19.2964L172.013 20.6341" stroke="black" stroke-linecap="round" stroke-linejoin="round"/>
<path d="M106.363 32.8066C106.363 32.8066 93.551 36.7008 97.3709 44.6971C101.191 52.6934 122.415 41.6055 119.933 40.0747C117.451 38.5438 105.204 44.8606 111.52 48.6804C117.837 52.5002 146.895 42.1852 161.624 46.763" stroke="black" stroke-linecap="round" stroke-linejoin="round"/>
<path d="M90.1337 172C90.1337 172 66.5907 147.506 50.7466 135.868C34.9026 124.23 11.0177 112.384 1 96.3619L88.3948 59.7988C88.3948 59.7988 100.85 71.0056 119.577 86.6415C138.305 102.277 155.16 109.59 157.538 113.811C157.538 113.811 155.011 135.942 149.898 149.007L90.1189 171.985L90.1337 172Z" fill="#FF774A"/>
<path d="M122.164 107.033L68.4932 130.383" stroke="black" stroke-linecap="round" stroke-linejoin="round"/>
<path d="M54.3735 121.867L106.498 98.8438" stroke="black" stroke-linecap="round" stroke-linejoin="round"/>
<path d="M41.2495 112.265L92.6905 90.3418" stroke="black" stroke-linecap="round" stroke-linejoin="round"/>
<path d="M30.6826 101.757L66.7404 86.0615" stroke="black" stroke-linecap="round" stroke-linejoin="round"/>
<path d="M149.914 149.022C155.026 135.957 157.553 113.826 157.553 113.826L135.749 125.865C142.69 134.322 149.914 149.022 149.914 149.022Z" fill="#FFA488"/>
<path d="M90.1337 172C90.1337 172 66.5907 147.506 50.7466 135.868C34.9026 124.23 11.0177 112.384 1 96.3619L88.3948 59.7988C88.3948 59.7988 100.85 71.0056 119.577 86.6415C138.305 102.277 155.16 109.59 157.538 113.811C157.538 113.811 155.011 135.942 149.898 149.007L90.1189 171.985L90.1337 172Z" stroke="black" stroke-linecap="round" stroke-linejoin="round"/>
<path d="M149.914 149.022C155.026 135.957 157.553 113.826 157.553 113.826L135.749 125.865C142.69 134.322 149.914 149.022 149.914 149.022Z" stroke="black" stroke-linecap="round" stroke-linejoin="round"/>
<path d="M186.551 151.251L222.935 93.0767L210.629 36.5674L171.034 96.5249L186.551 151.251Z" fill="#4488E3"/>
<path d="M186.551 151.251L222.935 93.0767L210.629 36.5674L171.034 96.5249L186.551 151.251Z" stroke="black" stroke-linecap="round" stroke-linejoin="round"/>
<path d="M183.682 141.113L220.424 81.5869" stroke="black" stroke-linecap="round" stroke-linejoin="round"/>
</svg>
