<svg width="485" height="493" viewBox="0 0 485 493" fill="none" xmlns="http://www.w3.org/2000/svg">
<path opacity="0.15" d="M210.733 619V397.533M1175.43 384.884L920.362 195.88C917.307 193.617 915.506 190.04 915.506 186.239V90.6268C915.506 83.9994 920.879 78.6268 927.506 78.6268H990.832C997.46 78.6268 1002.83 83.9994 1002.83 90.6268V180.282C1002.83 186.91 997.46 192.282 990.832 192.282H968.634C966.152 192.282 963.731 191.513 961.705 190.079L698.472 3.90248C694.318 0.964628 688.763 0.965511 684.61 3.90465L215.8 335.699C212.622 337.948 210.733 341.6 210.733 345.494V397.533M1175.43 384.884V611.514M1175.43 384.884V66.8644C1175.43 60.237 1180.8 54.8644 1187.43 54.8644H1260C1266.63 54.8644 1272 60.237 1272 66.8644V619M364.838 619V381.911C364.838 375.284 370.21 369.911 376.838 369.911H401.043C407.671 369.911 413.043 364.539 413.043 357.911V323.382C413.043 316.755 418.416 311.382 425.043 311.382H596.324C602.951 311.382 608.323 316.755 608.323 323.382V472.928C608.323 479.555 613.696 484.928 620.323 484.928H663.102C669.73 484.928 675.102 490.3 675.102 496.928V552.554C675.102 559.182 680.475 564.554 687.102 564.554H903.506C910.133 564.554 915.506 569.927 915.506 576.554V611.514M210.733 397.533L103.555 446.696C99.2916 448.652 96.5584 452.913 96.5584 457.604V492.802M96.5584 619V492.802M96.5584 492.802H14C7.37259 492.802 2 498.174 2 504.802V619" stroke="#113247" stroke-width="3"/>
</svg>
